<?xml version="1.0" encoding="utf-8"?>
<!-- Generator: Adobe Illustrator 24.0.1, SVG Export Plug-In . SVG Version: 6.00 Build 0)  -->
<svg version="1.1" id="Layer_1" xmlns="http://www.w3.org/2000/svg" xmlns:xlink="http://www.w3.org/1999/xlink" x="0px" y="0px"
	 viewBox="0 0 299.9 39.3" style="enable-background:new 0 0 299.9 39.3;" xml:space="preserve">
<style type="text/css">
	.st0{fill:#3BAAE2;}
	.st1{fill:#D81927;}
</style>
<title>1</title>
<path class="st0" d="M182.6,32.3c-1.4-0.3-2.7-1-3.8-1.8l1.7-3.7c1,0.7,2.1,1.3,3.2,1.6c1.3,0.4,2.6,0.6,3.9,0.6
	c1.1,0.1,2.2-0.1,3.2-0.7c0.6-0.4,1-1,1-1.8c0-0.8-0.4-1.5-1.1-1.8c-1.2-0.5-2.4-0.9-3.6-1.1c-1.4-0.3-2.7-0.7-4-1.1
	c-1-0.4-1.9-1-2.6-1.9c-0.8-1-1.2-2.2-1.1-3.5c0-1.3,0.4-2.5,1.1-3.5c0.8-1.1,1.9-1.9,3.1-2.4c1.5-0.6,3.1-0.9,4.7-0.8
	c1.3,0,2.7,0.2,4,0.5c1.2,0.3,2.3,0.7,3.4,1.4l-1.6,3.7c-1.8-1.1-3.8-1.7-5.9-1.7c-1.1-0.1-2.2,0.2-3.1,0.7c-0.6,0.4-1,1.1-1,1.8
	c0,0.8,0.4,1.5,1.2,1.8c1.2,0.5,2.4,0.9,3.6,1.1c1.3,0.3,2.6,0.7,3.9,1.1c1,0.4,1.9,1,2.6,1.8c0.8,1,1.2,2.2,1.1,3.4
	c0.1,2-0.8,3.8-2.4,5c-1.9,1.3-4.3,2-6.6,1.9C185.8,33,184.2,32.8,182.6,32.3z"/>
<path class="st0" d="M228.9,11.9v21h-4.4V30c-0.7,0.9-1.7,1.7-2.8,2.1c-1.1,0.5-2.3,0.8-3.6,0.8c-2.3,0.1-4.5-0.7-6.2-2.3
	c-1.5-1.5-2.3-3.8-2.3-6.8V11.9h4.6v11.2c-0.1,1.5,0.3,3,1.2,4.2c0.9,1,2.1,1.5,3.4,1.4c1.5,0.1,2.9-0.5,3.9-1.6
	c1-1.3,1.6-3,1.4-4.6V11.9H228.9z"/>
<path class="st0" d="M286,32.2c-1.3-0.3-2.5-0.9-3.6-1.6l1.8-3.6c1,0.7,2,1.1,3.2,1.5c1.2,0.4,2.4,0.5,3.6,0.5
	c2.8,0,4.1-0.8,4.1-2.3c0-0.7-0.4-1.3-1-1.5c-1.1-0.4-2.2-0.6-3.4-0.8c-1.4-0.2-2.7-0.5-4-0.9c-1-0.3-1.9-0.9-2.6-1.7
	c-0.8-1-1.2-2.2-1.1-3.5c0-1.8,0.8-3.6,2.3-4.6c1.9-1.2,4.1-1.9,6.3-1.8c1.3,0,2.7,0.2,4,0.5c1.2,0.3,2.3,0.7,3.4,1.3l-1.8,3.6
	c-1.7-1-3.6-1.5-5.6-1.5c-1.1-0.1-2.1,0.2-3.1,0.6c-0.6,0.3-1,1-1,1.7c0,0.7,0.4,1.4,1.1,1.6c1.1,0.4,2.3,0.7,3.5,0.9
	c1.3,0.2,2.6,0.5,3.9,0.9c1,0.3,1.9,0.9,2.6,1.7c0.8,0.9,1.2,2.1,1.1,3.4c0,1.8-0.9,3.6-2.4,4.6c-1.9,1.2-4.2,1.8-6.5,1.7
	C289.1,32.9,287.6,32.7,286,32.2z"/>
<path class="st0" d="M231,24.8c0,0.2,0.1,0.3,0.1,0.5c0,0.2,0.1,0.4,0.2,0.5c0.2,0.6,0.4,1.2,0.8,1.8l0.2,0.4c2,3.1,5.5,5,9.2,4.8
	c2.5,0.1,5-0.8,6.9-2.4l0.3-0.3l0.2-0.2l0.1-0.1l0,0c0.1-0.1,0.3-0.3,0.4-0.4c1.2-1.2,1.9-2.8,2.1-4.5c0.1-0.9,0.2-1.8,0.2-2.8V6.3
	l-4.1,2.5v13.8c0,0.4-0.1,0.8-0.1,1.2c-0.2,1.1-0.7,2.1-1.4,2.9c-0.4,0.5-1,0.9-1.5,1.3c-1,0.6-2.1,0.9-3.3,0.9
	c-2.2,0-4.3-1.1-5.4-3.1c-0.9-1.7-1-3.7-0.3-5.5c0.6-1.6,1.8-2.8,3.3-3.4l0.2-0.1l0,0l0.2-0.1c0.1,0,0.2-0.1,0.3-0.1h0.1h0.1
	c0.5-0.1,1-0.2,1.6-0.2h0.4c0.2,0,0.3,0,0.5,0.1c0.2,0,0.4,0.1,0.5,0.1c0.1,0,0.3,0.1,0.4,0.1c0.2,0,0.3,0.1,0.5,0.2l0.2,0.1v-4.5
	c-0.3-0.1-0.7-0.2-1-0.3c-0.5-0.1-1.1-0.2-1.6-0.2h-0.4c-1.7,0.1-3.4,0.6-4.9,1.6C232,15.8,230.1,20.3,231,24.8z"/>
<path class="st0" d="M253.9,14.3l-0.1,18.4h4.1V12L253.9,14.3z"/>
<path class="st0" d="M270.2,11.9c-5.8,0-10.4,4.7-10.4,10.4s4.7,10.4,10.4,10.4c5.8,0,10.4-4.7,10.4-10.4
	C280.6,16.6,275.9,11.9,270.2,11.9z M270.2,28.6c-3.5,0-6.3-2.8-6.3-6.3c0-3.5,2.8-6.3,6.3-6.3c3.5,0,6.3,2.8,6.3,6.3
	C276.4,25.8,273.6,28.6,270.2,28.6z"/>
<path class="st0" d="M207.8,32.9c-2.1,0-4.1-0.4-6-1.3c-1.5-0.8-2.7-2-3.5-3.5c-0.6-1-1-2-1.1-3.1c-0.1-0.9-0.1-10.8,0-16.1l4.3-2.5
	v5.6h6.5v4h-6.5v8.3c0.1,1.2,0.6,2.4,1.4,3.3c0.8,0.9,3,1.6,4.8,1.8h0.2v3.6C207.9,32.9,207.8,32.9,207.8,32.9z"/>
<polygon class="st1" points="168,19.4 168,25.4 167.2,26 157.3,32.9 157.3,25.8 162.1,22.4 157.3,19.1 157.3,11.9 157.2,11.9 
	157.3,11.9 167.2,18.8 "/>
<path class="st0" d="M80.2,16.9c-0.8-1.6-2.1-2.8-3.7-3.7c-1.6-0.9-3.4-1.3-5.2-1.3c-1.9,0-3.7,0.4-5.3,1.3
	c-1.6,0.9-2.8,2.2-3.7,3.8c-0.9,1.6-1.4,3.5-1.3,5.4c0,1.9,0.4,3.8,1.4,5.4c0.9,1.6,2.3,2.9,3.9,3.7c1.8,0.9,3.8,1.4,5.8,1.3
	c3.5,0,6.2-1.1,8-3.3l0.3-0.4L77,25.7l-0.2,0.2c-0.6,0.6-1.3,1.1-2.1,1.4c-0.8,0.3-1.7,0.5-2.6,0.5c-1.2,0.1-2.4-0.3-3.4-1
	c-0.8-0.6-1.4-1.5-1.7-2.5h14.3v-0.2c0.1-1.3,0.1-1.5,0.1-1.6C81.6,20.6,81.1,18.6,80.2,16.9z M67,20.4c0.2-1,0.7-1.9,1.4-2.6
	c0.8-0.7,1.9-1,3-1c1.1,0,2.2,0.3,3,1.1c0.8,0.7,1.3,1.6,1.4,2.6L67,20.4z"/>
<path class="st0" d="M95.2,11.9c-1.3,0-2.5,0.2-3.7,0.7c-0.9,0.4-1.7,0.9-2.4,1.6v-2.3h-5.8v21h6V22.8c-0.1-1.4,0.3-2.8,1.2-3.9
	c0.8-0.9,2-1.4,3.1-1.3c1-0.1,2,0.3,2.7,1.1c0.7,1,1,2.2,0.9,3.5v10.8h6V21.2c0-3-0.8-5.4-2.3-6.9C99.5,12.7,97.4,11.8,95.2,11.9z"
	/>
<path class="st0" d="M115.9,27.7v5.2c-0.4,0-0.8,0-1.1,0c-1.6-0.1-3.2-0.6-4.6-1.3c-1.6-0.9-2.9-2.2-3.8-3.8c-0.6-1.1-1-2.2-1.2-3.5
	c-0.1-1.3,0-14.4,0-14.4l6-3.5v5.6h4.7v5h-4.7v6.5c0.1,1,0.6,1.9,1.2,2.7c0.7,0.8,1.6,1.3,2.6,1.4c0.2,0,0.5,0.1,0.7,0h0.2
	L115.9,27.7z"/>
<polygon class="st0" points="123.6,11.9 123.6,32.9 117.8,32.9 117.8,15.4 121.5,13.1 123.6,11.9 "/>
<path class="st0" d="M41.9,28.6c-3.4,4.7-10,5.7-14.7,2.3s-5.7-10-2.3-14.7s10-5.7,14.7-2.3c0.9,0.6,1.6,1.4,2.3,2.3l-4,3.8
	c-1.3-2.4-4.3-3.3-6.8-2c-2.4,1.3-3.3,4.3-2,6.8s4.3,3.3,6.8,2c0.9-0.5,1.6-1.2,2-2L41.9,28.6z"/>
<path class="st0" d="M60.8,28.6c-3.4,4.7-10,5.7-14.7,2.3s-5.7-10-2.3-14.7c3.4-4.7,10-5.7,14.7-2.3c0.9,0.6,1.6,1.4,2.3,2.3l-4,3.8
	c-1.3-2.4-4.3-3.3-6.8-2c-2.4,1.3-3.3,4.3-2,6.8s4.3,3.3,6.8,2c0.9-0.5,1.6-1.2,2-2L60.8,28.6z"/>
<path class="st0" d="M135.9,17.4c2.8,0,5,2.2,5,5s-2.2,5-5,5s-5-2.2-5-5S133.1,17.4,135.9,17.4 M135.9,11.9
	c-5.8,0-10.5,4.7-10.5,10.5s4.7,10.5,10.5,10.5c5.8,0,10.5-4.7,10.5-10.5c0,0,0,0,0,0C146.4,16.6,141.7,11.9,135.9,11.9z"/>
<path class="st0" d="M17.5,30.1l0.2-0.2l0.1-0.1c0.1-0.1,0.3-0.3,0.4-0.4c1.4-1.4,2.3-3.1,2.8-4.9c0.1-0.6,0.2-1.2,0.2-1.9v-9.1
	l-5.4,3.3v5.8c0,0.3,0,0.6-0.1,0.9c-0.2,0.8-0.6,1.6-1.1,2.3c-0.3,0.4-0.8,0.7-1.2,1c-2.4,1.4-5.4,0.7-6.9-1.7c0,0,0,0,0,0
	c-0.7-1.4-0.8-3-0.2-4.4c0.5-1.2,1.4-2.2,2.6-2.7l0,0l0.2-0.1c0,0,0.1,0,0.1,0l0.4-0.1h0.1c0.5-0.1,1.1-0.2,1.6-0.2
	c0.1,0,0.2,0,0.4,0c0.2,0,0.3,0,0.5,0.1c0.1,0,0.2,0.1,0.3,0.1c0.1,0,0.2,0.1,0.4,0.1c0.1,0,0.2,0.1,0.3,0.2
	c0.1,0.1,0.2,0.1,0.3,0.2c0.2,0.1,0.4,0.2,0.5,0.4l0.1,0.1v-6.2c-0.5-0.3-1.1-0.5-1.6-0.6c-0.7-0.1-1.4-0.2-2.1-0.2
	c-1.7,0.1-3.4,0.6-4.9,1.6c-3.9,2.4-5.8,6.9-4.9,11.3c0,0.2,0.1,0.3,0.1,0.5s0.1,0.4,0.1,0.5C1,26.4,1.2,27,1.5,27.5
	c0,0.1,0.1,0.2,0.1,0.3l0,0c3.1,5.6,11.1,6.5,15.5,2.5L17.5,30.1z"/>
<path class="st0" d="M19.2,30.4c-0.1,0.2-0.3,0.3-0.4,0.5L18.7,31l0,0c-0.1,0.1-0.2,0.2-0.3,0.3v0L18,31.7c-0.5,0.4-1,0.8-1.6,1.2
	h4.8v-5.3C20.7,28.6,20,29.6,19.2,30.4z"/>
</svg>
