<svg xmlns="http://www.w3.org/2000/svg" viewBox="0 0 265.86 57.27"><defs><style>.cls-1{fill:#3baae2;}</style></defs><g id="Cover_Photo" data-name="Cover Photo"><g id="Logo_BIg" data-name="Logo BIg"><path class="cls-1" d="M144.94,22.84a15.83,15.83,0,0,0-6.2-6.29A17.9,17.9,0,0,0,130,14.37a18.09,18.09,0,0,0-9,2.28A16.56,16.56,0,0,0,114.61,23a18.29,18.29,0,0,0-2.32,9.16,18,18,0,0,0,2.35,9.18,16.21,16.21,0,0,0,6.65,6.34A20.82,20.82,0,0,0,131.15,50c5.95,0,10.55-1.89,13.65-5.61l.59-.68-5.87-5.84-.32.31a10.48,10.48,0,0,1-3.49,2.39,11.57,11.57,0,0,1-4.32.75,9.62,9.62,0,0,1-5.88-1.74,7.54,7.54,0,0,1-2.84-4.2H147l0-.39c.16-2.19.18-2.58.18-2.67A19.48,19.48,0,0,0,144.94,22.84Zm-22.43,6a7.66,7.66,0,0,1,2.43-4.43A7.53,7.53,0,0,1,130,22.61a7.28,7.28,0,0,1,5,1.81,7.63,7.63,0,0,1,2.43,4.39Z"/><path class="cls-1" d="M170.34,14.43a15.7,15.7,0,0,0-6.23,1.21,13.11,13.11,0,0,0-4,2.67V14.74h-9.78V49.67h10.2v-17c0-2.93.67-5.16,2-6.63a6.79,6.79,0,0,1,5.34-2.18,5.52,5.52,0,0,1,4.54,1.85c1,1.26,1.59,3.21,1.59,5.81V49.67h10.2V30c0-5.1-1.28-9-3.81-11.63A13.33,13.33,0,0,0,170.34,14.43Z"/><path class="cls-1" d="M205.62,40.89v8.66a13.81,13.81,0,0,1-1.93,0,18.79,18.79,0,0,1-7.79-2.22A16.74,16.74,0,0,1,189.4,41a14.8,14.8,0,0,1-2.05-5.77c-.25-2.17,0-24.06,0-24.06l10.2-5.86V15.62h8V24h-8v9.88a8.27,8.27,0,0,0,2.07,4.46,7,7,0,0,0,4.4,2.33,7.32,7.32,0,0,0,1.24.09h.28Z"/><polygon class="cls-1" points="218.64 14.37 218.64 49.61 208.69 49.61 208.69 20.23 215.1 16.45 218.63 14.37 218.64 14.37"/><path class="cls-1" d="M79.89,42.71a17.81,17.81,0,1,1,0-21.07l-6.76,6.5a8.57,8.57,0,1,0,0,8.06Z"/><path class="cls-1" d="M112,42.71a17.81,17.81,0,1,1,0-21.07l-6.76,6.5a8.56,8.56,0,1,0,0,8.06Z"/><path class="cls-1" d="M239.51,23.69A8.48,8.48,0,1,1,231,32.17a8.49,8.49,0,0,1,8.48-8.48m0-9.32a17.8,17.8,0,1,0,17.8,17.8,17.8,17.8,0,0,0-17.8-17.8Z"/><path class="cls-1" d="M38.46,45.33l.4-.36.13-.14.63-.65a17.41,17.41,0,0,0,4.74-8.37,16.74,16.74,0,0,0,.37-3.17V17.09l-9.19,5.53v9.8A8.32,8.32,0,0,1,35.34,34a8.59,8.59,0,0,1-1.92,3.89,8.26,8.26,0,0,1-2.07,1.73,8.55,8.55,0,0,1-11.71-2.9,8.87,8.87,0,0,1-.39-7.44,7.94,7.94,0,0,1,4.51-4.56h0l.38-.13a.56.56,0,0,1,.17-.06c.2-.08.41-.14.61-.21l.1,0A8.49,8.49,0,0,1,27.81,24a4.11,4.11,0,0,1,.6.08,3.9,3.9,0,0,1,.77.16,3.1,3.1,0,0,1,.52.15,3.63,3.63,0,0,1,.6.22,3.52,3.52,0,0,1,.59.28,3.15,3.15,0,0,1,.57.31,7.28,7.28,0,0,1,.92.65l.15.13V15.48a11.68,11.68,0,0,0-2.75-.89,14.61,14.61,0,0,0-3.59-.27A17.14,17.14,0,0,0,17.91,17,18.25,18.25,0,0,0,9.6,36.14l.18.8c.08.31.16.62.27.93a18.84,18.84,0,0,0,1.26,3.07c.08.15.16.31.25.46l0,.06C16.91,50.9,30.44,52.56,38,45.75Z"/><path class="cls-1" d="M41.37,45.83c-.24.26-.47.51-.73.77l-.23.26-.06.06-.54.51-.08.07-.52.46a20.45,20.45,0,0,1-2.65,2h8.17V41A24.49,24.49,0,0,1,41.37,45.83Z"/></g></g></svg>