<svg width="32" height="32" viewBox="0 0 32 32" fill="none" xmlns="http://www.w3.org/2000/svg">
<circle cx="16" cy="16" r="16" fill="#0E0B1E"/>
<circle cx="16" cy="16" r="16" fill="#BCC3F9"/>
<g clip-path="url(#clip0_2255_6565)">
<path d="M11.078 15.3577C11.0262 15.0238 10.9993 14.6819 10.9993 14.3337C10.9993 10.6518 14.0037 7.66699 17.7098 7.66699C21.416 7.66699 24.4204 10.6518 24.4204 14.3337C24.4204 15.1654 24.2671 15.9615 23.987 16.6957C23.9288 16.8482 23.8997 16.9245 23.8865 16.984C23.8734 17.043 23.8684 17.0845 23.867 17.1449C23.8655 17.2058 23.8738 17.273 23.8903 17.4073L24.2258 20.1324C24.2621 20.4274 24.2803 20.5749 24.2312 20.6822C24.1882 20.7761 24.1118 20.8508 24.0169 20.8916C23.9086 20.9382 23.7615 20.9166 23.4674 20.8735L20.8131 20.4844C20.6745 20.4641 20.6052 20.4539 20.5421 20.4543C20.4796 20.4547 20.4364 20.4593 20.3753 20.4721C20.3135 20.4851 20.2346 20.5147 20.0768 20.5738C19.3407 20.8495 18.543 21.0003 17.7098 21.0003C17.3614 21.0003 17.0191 20.9739 16.6849 20.9231M12.359 24.3337C14.8297 24.3337 16.8327 22.2816 16.8327 19.7503C16.8327 17.219 14.8297 15.167 12.359 15.167C9.88825 15.167 7.88531 17.219 7.88531 19.7503C7.88531 20.2592 7.96625 20.7486 8.11564 21.2059C8.17879 21.3992 8.21037 21.4959 8.22073 21.5619C8.23155 21.6309 8.23344 21.6696 8.22942 21.7393C8.22556 21.806 8.20886 21.8814 8.17547 22.0323L7.66602 24.3337L10.1617 23.9928C10.2979 23.9742 10.366 23.9649 10.4255 23.9653C10.4881 23.9657 10.5214 23.9691 10.5828 23.9814C10.6411 23.993 10.7278 24.0236 10.9012 24.0848C11.3582 24.2461 11.8486 24.3337 12.359 24.3337Z" stroke="#0E0B1E" stroke-width="2" stroke-linecap="round" stroke-linejoin="round"/>
</g>
<defs>
<clipPath id="clip0_2255_6565">
<rect width="20" height="20" fill="white" transform="translate(6 6)"/>
</clipPath>
</defs>
</svg>
