<svg width="366" height="218" viewBox="0 0 366 218" fill="none" xmlns="http://www.w3.org/2000/svg">
<g filter="url(#filter0_ddd_2258_6706)">
<rect x="5" y="4" width="58.2545" height="58.2545" rx="12" fill="#F7F4FF" fill-opacity="0.03" shape-rendering="crispEdges"/>
</g>
<g filter="url(#filter1_ddd_2258_6706)">
<rect x="5" y="78.4365" width="58.2545" height="58.2545" rx="12" fill="#F7F4FF" fill-opacity="0.03" shape-rendering="crispEdges"/>
</g>
<g filter="url(#filter2_ddd_2258_6706)">
<rect x="5" y="152.873" width="58.2545" height="58.2545" rx="12" fill="#F7F4FF" fill-opacity="0.03" shape-rendering="crispEdges"/>
</g>
<g filter="url(#filter3_ddd_2258_6706)">
<rect x="79.4355" y="4" width="58.2545" height="58.2545" rx="12" fill="#F7F4FF" fill-opacity="0.03" shape-rendering="crispEdges"/>
</g>
<g filter="url(#filter4_ddd_2258_6706)">
<rect x="79.4355" y="78.4365" width="58.2545" height="58.2545" rx="12" fill="#F7F4FF" fill-opacity="0.03" shape-rendering="crispEdges"/>
</g>
<g filter="url(#filter5_ddd_2258_6706)">
<rect x="79.4355" y="152.873" width="58.2545" height="58.2545" rx="12" fill="#F7F4FF" fill-opacity="0.03" shape-rendering="crispEdges"/>
</g>
<g filter="url(#filter6_ddd_2258_6706)">
<rect x="153.873" y="4" width="58.2545" height="58.2545" rx="12" fill="#F7F4FF" fill-opacity="0.03" shape-rendering="crispEdges"/>
</g>
<g filter="url(#filter7_ddd_2258_6706)">
<rect x="153.873" y="78.4365" width="58.2545" height="58.2545" rx="12" fill="#F7F4FF" fill-opacity="0.03" shape-rendering="crispEdges"/>
</g>
<g filter="url(#filter8_ddd_2258_6706)">
<rect x="153.873" y="152.873" width="58.2545" height="58.2545" rx="12" fill="#F7F4FF" fill-opacity="0.03" shape-rendering="crispEdges"/>
</g>
<g filter="url(#filter9_ddd_2258_6706)">
<rect x="228.309" y="4" width="58.2545" height="58.2545" rx="12" fill="#F7F4FF" fill-opacity="0.03" shape-rendering="crispEdges"/>
</g>
<g filter="url(#filter10_ddd_2258_6706)">
<rect x="228.309" y="78.4365" width="58.2545" height="58.2545" rx="12" fill="#F7F4FF" fill-opacity="0.03" shape-rendering="crispEdges"/>
</g>
<g filter="url(#filter11_ddd_2258_6706)">
<rect x="228.309" y="152.873" width="58.2545" height="58.2545" rx="12" fill="#F7F4FF" fill-opacity="0.03" shape-rendering="crispEdges"/>
</g>
<g filter="url(#filter12_ddd_2258_6706)">
<rect x="302.746" y="4" width="58.2545" height="58.2545" rx="12" fill="#F7F4FF" fill-opacity="0.03" shape-rendering="crispEdges"/>
</g>
<g filter="url(#filter13_ddd_2258_6706)">
<rect x="302.746" y="78.4365" width="58.2545" height="58.2545" rx="12" fill="#F7F4FF" fill-opacity="0.03" shape-rendering="crispEdges"/>
</g>
<g filter="url(#filter14_ddd_2258_6706)">
<rect x="302.746" y="152.873" width="58.2545" height="58.2545" rx="12" fill="#F7F4FF" fill-opacity="0.03" shape-rendering="crispEdges"/>
</g>
<path d="M182.836 105.357V110.057H189.335C189.05 111.569 188.193 112.849 186.909 113.71L190.828 116.766C193.111 114.648 194.428 111.536 194.428 107.84C194.428 106.979 194.352 106.151 194.209 105.357L182.836 105.357Z" fill="white"/>
<path d="M176.07 109.873L175.187 110.553L172.058 113.003C174.045 116.964 178.117 119.7 182.837 119.7C186.098 119.7 188.831 118.619 190.829 116.765L186.91 113.709C185.834 114.437 184.462 114.879 182.837 114.879C179.698 114.879 177.031 112.749 176.075 109.88L176.07 109.873Z" fill="white"/>
<path d="M172.058 102.124C171.235 103.757 170.763 105.6 170.763 107.564C170.763 109.528 171.235 111.37 172.058 113.003C172.058 113.014 176.076 109.87 176.076 109.87C175.834 109.141 175.692 108.369 175.692 107.563C175.692 106.758 175.834 105.986 176.076 105.257L172.058 102.124Z" fill="white"/>
<path d="M182.838 100.26C184.616 100.26 186.197 100.878 187.459 102.069L190.917 98.5936C188.82 96.6297 186.098 95.4269 182.838 95.4269C178.117 95.4269 174.045 98.1519 172.058 102.124L176.076 105.257C177.031 102.389 179.698 100.26 182.838 100.26Z" fill="white"/>
<path fill-rule="evenodd" clip-rule="evenodd" d="M245.3 119.7V95.4276H269.573V119.7H265.969L257.314 111.047L259.879 108.483L265.969 114.573V99.0306H248.916V116.073H256.289V119.7H245.3Z" fill="white"/>
<path d="M173.178 25.9255C174.15 24.8537 175.44 24.2276 176.955 24.2276C179.906 24.2276 181.863 26.489 182.238 29.8767C182.359 30.9769 182.358 32.5279 182.357 34.3245C182.357 34.5087 182.357 34.6955 182.357 34.8847V41.6148H178.298V36.637C178.298 36.637 178.289 32.3768 178.265 31.5805C178.156 28.1127 176.199 25.9337 173.177 25.9314C172.266 26.9421 171.777 28.1779 171.705 30.0675C171.695 30.3311 171.698 31.2652 171.701 32.4965C171.703 33.1344 171.705 33.852 171.705 34.5975C171.708 37.842 171.705 41.6156 171.705 41.6156H167.646V33.9548C167.646 33.6923 167.642 33.4276 167.637 33.1618C167.628 32.6272 167.619 32.0884 167.646 31.555C167.692 30.6657 167.839 29.7915 168.234 28.9794C169.139 27.1189 170.994 25.921 172.971 25.921C173.04 25.921 173.109 25.9228 173.178 25.9255Z" fill="white"/>
<path d="M198.355 34.7003C198.382 34.1668 198.373 33.628 198.364 33.0935C198.359 32.8277 198.355 32.563 198.355 32.3005V24.6397H194.296C194.296 24.6397 194.293 28.4132 194.296 31.6577C194.296 32.4032 194.298 33.1208 194.3 33.7587C194.303 34.99 194.306 35.9241 194.296 36.1877C194.224 38.0773 193.735 39.3131 192.824 40.3239C189.802 40.3217 187.846 38.1425 187.737 34.6747C187.712 33.8785 187.701 31.9027 187.701 29.6142V24.6364L183.645 24.6403V31.3705C183.645 31.5596 183.645 31.7464 183.645 31.9307C183.644 33.7272 183.643 35.2782 183.764 36.3785C184.138 39.7662 186.095 42.0276 189.046 42.0276C190.561 42.0276 191.851 41.4015 192.823 40.3296C192.892 40.3324 192.961 40.3341 193.03 40.3341C195.007 40.3341 196.862 39.1362 197.767 37.2757C198.162 36.4635 198.309 35.5896 198.355 34.7003Z" fill="white"/>
<path d="M265.588 33.1276C265.588 37.6321 261.941 41.2784 257.437 41.2784V33.1276H265.588ZM257.437 24.9768V33.1276H249.286C249.286 28.6231 252.932 24.9768 257.437 24.9768Z" fill="white" fill-opacity="0.38"/>
<path d="M257.437 24.9768C261.941 24.9768 265.588 28.6231 265.588 33.1276H257.437V24.9768ZM249.286 33.1276H257.437V41.2784C252.932 41.2784 249.286 37.6321 249.286 33.1276Z" fill="white"/>
<path d="M257.437 24.9768L257.437 25.4236C261.684 25.4236 265.141 28.8792 265.141 33.1276H265.588C265.588 28.6263 261.938 24.9768 257.437 24.9768ZM257.437 40.8315C253.189 40.8315 249.733 37.376 249.733 33.1276H249.286C249.286 37.6289 252.936 41.2784 257.437 41.2784M257.437 19.373C249.841 19.373 243.682 25.5314 243.682 33.1276C243.682 40.7238 249.841 46.8821 257.437 46.8821C265.033 46.8821 271.191 40.7238 271.191 33.1276C271.191 25.5314 265.033 19.373 257.437 19.373ZM270.297 33.1276C270.297 40.2297 264.54 45.9877 257.437 45.9877C250.334 45.9877 244.577 40.2297 244.577 33.1276C244.577 26.0255 250.335 20.2675 257.437 20.2675C264.539 20.2675 270.297 26.0255 270.297 33.1276Z" fill="white"/>
<path d="M251.559 26.4921C251.998 26.0323 252.247 25.5012 251.808 24.994C251.569 24.7188 251.167 24.6586 250.834 24.7943L250.801 24.8071L250.812 24.7782C250.861 24.6474 250.892 24.2302 250.534 23.9421C250.36 23.8017 250.141 23.7495 249.92 23.772C249.507 23.8137 249.189 24.0938 248.325 25.051C248.064 25.3399 247.684 25.7956 247.456 26.0909L249.831 28.328C250.618 27.463 250.938 27.1413 251.559 26.4921ZM248.46 25.9449C248.939 25.364 249.447 24.8368 249.677 24.6282C249.75 24.5624 249.829 24.4966 249.925 24.4709C250.081 24.4284 250.242 24.5383 250.278 24.6972C250.315 24.8568 250.214 25.0085 250.101 25.1337C249.848 25.4169 248.921 26.3806 248.921 26.3806L248.46 25.9449ZM249.39 26.8211C249.39 26.8211 250.294 25.8727 250.589 25.5694C250.706 25.449 250.781 25.376 250.862 25.3367C250.966 25.2861 251.08 25.2757 251.182 25.3431C251.282 25.4097 251.328 25.5244 251.303 25.6384C251.273 25.774 251.161 25.9032 251.069 26.0019C250.945 26.1343 249.874 27.2729 249.872 27.2745L249.39 26.8211ZM257.708 23.8242L258.469 22.1327L258.517 21.9827L258.503 22.1391L258.583 24.3995C258.85 24.4243 259.126 24.4613 259.397 24.5062L259.273 21.1586C258.894 21.1169 258.515 21.0872 258.137 21.0711L257.388 22.9175L257.362 23.0547L257.335 22.9175L256.587 21.0711C256.209 21.0872 255.831 21.1169 255.451 21.1586L255.327 24.5062C255.599 24.4613 255.874 24.4252 256.141 24.3995L256.221 22.1391L256.207 21.9827L256.256 22.1327L257.016 23.8242H257.708ZM264.023 27.3234C264.209 27.5224 264.478 27.8434 264.629 28.0383L267.412 26.2843C267.273 26.1038 267.052 25.8293 266.886 25.636L265.124 26.793L265.003 26.8957L265.093 26.7657L265.871 25.2235L265.321 24.6771L263.767 25.4498L263.636 25.5389L263.741 25.4193L264.906 23.6701C264.701 23.4968 264.504 23.3379 264.253 23.1453L262.487 25.9064C262.71 26.0773 263.005 26.3284 263.194 26.4993L264.856 25.6424L264.963 25.5646L264.885 25.6705L264.023 27.3234Z" fill="white"/>
<path d="M108.564 23.1814C100.075 23.1814 93.1914 27.6344 93.1914 33.125C93.1914 38.6195 100.075 43.0737 108.564 43.0737C117.054 43.0737 123.937 38.6208 123.937 33.125C123.937 27.6293 117.054 23.1814 108.564 23.1814ZM108.564 38.8053C107.301 38.8053 106.271 36.3174 106.207 33.1878C107.775 33.3251 109.353 33.3251 110.921 33.1878C110.857 36.3162 109.827 38.8053 108.564 38.8053ZM106.362 30.7038C106.705 28.4914 107.562 26.9209 108.564 26.9209C109.566 26.9209 110.422 28.4914 110.766 30.7038C109.301 30.8339 107.827 30.8339 106.362 30.7038ZM108.564 24.6188C106.915 24.6188 105.509 27.0887 104.99 30.536C101.864 30.0492 99.6825 28.9372 99.6825 27.6459C99.6825 25.9037 103.659 24.4932 108.564 24.4932C113.471 24.4932 117.446 25.905 117.446 27.6459C117.446 28.9372 115.264 30.0492 112.138 30.536C111.619 27.09 110.213 24.6201 108.564 24.6201V24.6188ZM95.3948 32.7535C95.3948 31.0689 96.0443 29.4868 97.1729 28.1289C97.1614 28.2237 97.1537 28.3211 97.1537 28.4184C97.1537 30.5411 100.337 32.3513 104.78 33.0174C104.776 33.1711 104.776 33.3274 104.776 33.4837C104.776 37.4422 105.885 40.7922 107.419 41.9298C100.68 41.5237 95.3948 37.5703 95.3948 32.7535ZM109.709 41.9298C111.243 40.7922 112.352 37.4409 112.352 33.4837C112.352 33.3262 112.35 33.1724 112.348 33.0187C116.789 32.3526 119.975 30.5437 119.975 28.4184C119.975 28.3211 119.967 28.2237 119.955 28.1289C121.084 29.4907 121.732 31.0689 121.732 32.7535C121.732 37.5703 116.448 41.5237 109.709 41.9298Z" fill="white"/>
<path d="M97.1746 104.554C95.0075 104.554 93.2017 105.459 93.2017 108.189C93.2017 110.351 94.416 111.713 97.2306 111.713C100.544 111.713 100.756 109.565 100.756 109.565H99.1506C99.1506 109.565 98.8064 110.722 97.1327 110.722C95.7694 110.722 94.7889 109.816 94.7889 108.545H100.924V107.748C100.924 106.491 100.113 104.554 97.1746 104.554ZM97.1187 105.573C98.4163 105.573 99.301 106.355 99.301 107.528H94.8244C94.8244 106.283 95.9791 105.573 97.1187 105.573Z" fill="white"/>
<path d="M100.923 101.91V110.342C100.923 110.821 100.888 111.493 100.888 111.493H102.419C102.419 111.493 102.474 111.01 102.474 110.569C102.474 110.569 103.23 111.734 105.287 111.734C107.453 111.734 108.925 110.254 108.925 108.134C108.925 106.161 107.573 104.575 105.291 104.575C103.154 104.575 102.489 105.71 102.489 105.71V101.91H100.923ZM104.896 105.617C106.366 105.617 107.302 106.692 107.302 108.134C107.302 109.68 106.222 110.691 104.906 110.691C103.336 110.691 102.489 109.485 102.489 108.147C102.489 106.901 103.249 105.617 104.896 105.617Z" fill="white"/>
<path d="M112.73 104.554C109.469 104.554 109.26 106.311 109.26 106.592H110.883C110.883 106.592 110.968 105.566 112.618 105.566C113.69 105.566 114.52 106.049 114.52 106.977V107.308H112.618C110.092 107.308 108.757 108.035 108.757 109.51C108.757 110.963 109.99 111.753 111.658 111.753C113.93 111.753 114.662 110.517 114.662 110.517C114.662 111.009 114.7 111.493 114.7 111.493H116.143C116.143 111.493 116.087 110.893 116.087 110.509V107.189C116.087 105.012 114.303 104.554 112.73 104.554ZM114.52 108.299V108.739C114.52 109.314 114.16 110.743 112.039 110.743C110.877 110.743 110.379 110.172 110.379 109.51C110.379 108.307 112.056 108.299 114.52 108.299Z" fill="white"/>
<path d="M115.213 104.83H117.039L119.659 109.996L122.273 104.83H123.927L119.165 114.027H117.431L118.805 111.463L115.213 104.83Z" fill="white"/>
<path d="M200 182C200 191.389 192.389 199 183 199C173.612 199 166 191.389 166 182C166 172.611 173.612 165 183 165C192.389 165 200 172.611 200 182Z" fill="white" fill-opacity="0.12"/>
<path d="M177.54 187V178.15H174.06V176.5H182.97V178.15H179.49V187H177.54Z" fill="white"/>
<path d="M186.854 187.105C186.174 187.105 185.574 186.98 185.054 186.73C184.534 186.47 184.129 186.08 183.839 185.56C183.549 185.03 183.404 184.365 183.404 183.565V178.99H185.279V183.31C185.279 184.03 185.438 184.57 185.758 184.93C186.088 185.28 186.554 185.455 187.154 185.455C187.594 185.455 187.974 185.365 188.294 185.185C188.624 185.005 188.879 184.735 189.059 184.375C189.249 184.015 189.344 183.57 189.344 183.04V178.99H191.219V187H189.434V184.84L189.749 185.5C189.479 186.02 189.083 186.42 188.563 186.7C188.043 186.97 187.474 187.105 186.854 187.105ZM186.044 177.895L188.069 175.84H190.273L187.664 177.895H186.044Z" fill="white"/>
<defs>
<filter id="filter0_ddd_2258_6706" x="0" y="0" width="68.2539" height="68.2549" filterUnits="userSpaceOnUse" color-interpolation-filters="sRGB">
<feFlood flood-opacity="0" result="BackgroundImageFix"/>
<feColorMatrix in="SourceAlpha" type="matrix" values="0 0 0 0 0 0 0 0 0 0 0 0 0 0 0 0 0 0 127 0" result="hardAlpha"/>
<feOffset dy="1"/>
<feGaussianBlur stdDeviation="2.5"/>
<feComposite in2="hardAlpha" operator="out"/>
<feColorMatrix type="matrix" values="0 0 0 0 0 0 0 0 0 0 0 0 0 0 0 0 0 0 0.02 0"/>
<feBlend mode="normal" in2="BackgroundImageFix" result="effect1_dropShadow_2258_6706"/>
<feColorMatrix in="SourceAlpha" type="matrix" values="0 0 0 0 0 0 0 0 0 0 0 0 0 0 0 0 0 0 127 0" result="hardAlpha"/>
<feOffset dy="3"/>
<feGaussianBlur stdDeviation="0.5"/>
<feComposite in2="hardAlpha" operator="out"/>
<feColorMatrix type="matrix" values="0 0 0 0 0 0 0 0 0 0 0 0 0 0 0 0 0 0 0.07 0"/>
<feBlend mode="normal" in2="effect1_dropShadow_2258_6706" result="effect2_dropShadow_2258_6706"/>
<feColorMatrix in="SourceAlpha" type="matrix" values="0 0 0 0 0 0 0 0 0 0 0 0 0 0 0 0 0 0 127 0" result="hardAlpha"/>
<feOffset dy="2"/>
<feGaussianBlur stdDeviation="1"/>
<feComposite in2="hardAlpha" operator="out"/>
<feColorMatrix type="matrix" values="0 0 0 0 0 0 0 0 0 0 0 0 0 0 0 0 0 0 0.12 0"/>
<feBlend mode="normal" in2="effect2_dropShadow_2258_6706" result="effect3_dropShadow_2258_6706"/>
<feBlend mode="normal" in="SourceGraphic" in2="effect3_dropShadow_2258_6706" result="shape"/>
</filter>
<filter id="filter1_ddd_2258_6706" x="0" y="74.4365" width="68.2539" height="68.2549" filterUnits="userSpaceOnUse" color-interpolation-filters="sRGB">
<feFlood flood-opacity="0" result="BackgroundImageFix"/>
<feColorMatrix in="SourceAlpha" type="matrix" values="0 0 0 0 0 0 0 0 0 0 0 0 0 0 0 0 0 0 127 0" result="hardAlpha"/>
<feOffset dy="1"/>
<feGaussianBlur stdDeviation="2.5"/>
<feComposite in2="hardAlpha" operator="out"/>
<feColorMatrix type="matrix" values="0 0 0 0 0 0 0 0 0 0 0 0 0 0 0 0 0 0 0.02 0"/>
<feBlend mode="normal" in2="BackgroundImageFix" result="effect1_dropShadow_2258_6706"/>
<feColorMatrix in="SourceAlpha" type="matrix" values="0 0 0 0 0 0 0 0 0 0 0 0 0 0 0 0 0 0 127 0" result="hardAlpha"/>
<feOffset dy="3"/>
<feGaussianBlur stdDeviation="0.5"/>
<feComposite in2="hardAlpha" operator="out"/>
<feColorMatrix type="matrix" values="0 0 0 0 0 0 0 0 0 0 0 0 0 0 0 0 0 0 0.07 0"/>
<feBlend mode="normal" in2="effect1_dropShadow_2258_6706" result="effect2_dropShadow_2258_6706"/>
<feColorMatrix in="SourceAlpha" type="matrix" values="0 0 0 0 0 0 0 0 0 0 0 0 0 0 0 0 0 0 127 0" result="hardAlpha"/>
<feOffset dy="2"/>
<feGaussianBlur stdDeviation="1"/>
<feComposite in2="hardAlpha" operator="out"/>
<feColorMatrix type="matrix" values="0 0 0 0 0 0 0 0 0 0 0 0 0 0 0 0 0 0 0.12 0"/>
<feBlend mode="normal" in2="effect2_dropShadow_2258_6706" result="effect3_dropShadow_2258_6706"/>
<feBlend mode="normal" in="SourceGraphic" in2="effect3_dropShadow_2258_6706" result="shape"/>
</filter>
<filter id="filter2_ddd_2258_6706" x="0" y="148.873" width="68.2539" height="68.2549" filterUnits="userSpaceOnUse" color-interpolation-filters="sRGB">
<feFlood flood-opacity="0" result="BackgroundImageFix"/>
<feColorMatrix in="SourceAlpha" type="matrix" values="0 0 0 0 0 0 0 0 0 0 0 0 0 0 0 0 0 0 127 0" result="hardAlpha"/>
<feOffset dy="1"/>
<feGaussianBlur stdDeviation="2.5"/>
<feComposite in2="hardAlpha" operator="out"/>
<feColorMatrix type="matrix" values="0 0 0 0 0 0 0 0 0 0 0 0 0 0 0 0 0 0 0.02 0"/>
<feBlend mode="normal" in2="BackgroundImageFix" result="effect1_dropShadow_2258_6706"/>
<feColorMatrix in="SourceAlpha" type="matrix" values="0 0 0 0 0 0 0 0 0 0 0 0 0 0 0 0 0 0 127 0" result="hardAlpha"/>
<feOffset dy="3"/>
<feGaussianBlur stdDeviation="0.5"/>
<feComposite in2="hardAlpha" operator="out"/>
<feColorMatrix type="matrix" values="0 0 0 0 0 0 0 0 0 0 0 0 0 0 0 0 0 0 0.07 0"/>
<feBlend mode="normal" in2="effect1_dropShadow_2258_6706" result="effect2_dropShadow_2258_6706"/>
<feColorMatrix in="SourceAlpha" type="matrix" values="0 0 0 0 0 0 0 0 0 0 0 0 0 0 0 0 0 0 127 0" result="hardAlpha"/>
<feOffset dy="2"/>
<feGaussianBlur stdDeviation="1"/>
<feComposite in2="hardAlpha" operator="out"/>
<feColorMatrix type="matrix" values="0 0 0 0 0 0 0 0 0 0 0 0 0 0 0 0 0 0 0.12 0"/>
<feBlend mode="normal" in2="effect2_dropShadow_2258_6706" result="effect3_dropShadow_2258_6706"/>
<feBlend mode="normal" in="SourceGraphic" in2="effect3_dropShadow_2258_6706" result="shape"/>
</filter>
<filter id="filter3_ddd_2258_6706" x="74.4355" y="0" width="68.2539" height="68.2549" filterUnits="userSpaceOnUse" color-interpolation-filters="sRGB">
<feFlood flood-opacity="0" result="BackgroundImageFix"/>
<feColorMatrix in="SourceAlpha" type="matrix" values="0 0 0 0 0 0 0 0 0 0 0 0 0 0 0 0 0 0 127 0" result="hardAlpha"/>
<feOffset dy="1"/>
<feGaussianBlur stdDeviation="2.5"/>
<feComposite in2="hardAlpha" operator="out"/>
<feColorMatrix type="matrix" values="0 0 0 0 0 0 0 0 0 0 0 0 0 0 0 0 0 0 0.02 0"/>
<feBlend mode="normal" in2="BackgroundImageFix" result="effect1_dropShadow_2258_6706"/>
<feColorMatrix in="SourceAlpha" type="matrix" values="0 0 0 0 0 0 0 0 0 0 0 0 0 0 0 0 0 0 127 0" result="hardAlpha"/>
<feOffset dy="3"/>
<feGaussianBlur stdDeviation="0.5"/>
<feComposite in2="hardAlpha" operator="out"/>
<feColorMatrix type="matrix" values="0 0 0 0 0 0 0 0 0 0 0 0 0 0 0 0 0 0 0.07 0"/>
<feBlend mode="normal" in2="effect1_dropShadow_2258_6706" result="effect2_dropShadow_2258_6706"/>
<feColorMatrix in="SourceAlpha" type="matrix" values="0 0 0 0 0 0 0 0 0 0 0 0 0 0 0 0 0 0 127 0" result="hardAlpha"/>
<feOffset dy="2"/>
<feGaussianBlur stdDeviation="1"/>
<feComposite in2="hardAlpha" operator="out"/>
<feColorMatrix type="matrix" values="0 0 0 0 0 0 0 0 0 0 0 0 0 0 0 0 0 0 0.12 0"/>
<feBlend mode="normal" in2="effect2_dropShadow_2258_6706" result="effect3_dropShadow_2258_6706"/>
<feBlend mode="normal" in="SourceGraphic" in2="effect3_dropShadow_2258_6706" result="shape"/>
</filter>
<filter id="filter4_ddd_2258_6706" x="74.4355" y="74.4365" width="68.2539" height="68.2549" filterUnits="userSpaceOnUse" color-interpolation-filters="sRGB">
<feFlood flood-opacity="0" result="BackgroundImageFix"/>
<feColorMatrix in="SourceAlpha" type="matrix" values="0 0 0 0 0 0 0 0 0 0 0 0 0 0 0 0 0 0 127 0" result="hardAlpha"/>
<feOffset dy="1"/>
<feGaussianBlur stdDeviation="2.5"/>
<feComposite in2="hardAlpha" operator="out"/>
<feColorMatrix type="matrix" values="0 0 0 0 0 0 0 0 0 0 0 0 0 0 0 0 0 0 0.02 0"/>
<feBlend mode="normal" in2="BackgroundImageFix" result="effect1_dropShadow_2258_6706"/>
<feColorMatrix in="SourceAlpha" type="matrix" values="0 0 0 0 0 0 0 0 0 0 0 0 0 0 0 0 0 0 127 0" result="hardAlpha"/>
<feOffset dy="3"/>
<feGaussianBlur stdDeviation="0.5"/>
<feComposite in2="hardAlpha" operator="out"/>
<feColorMatrix type="matrix" values="0 0 0 0 0 0 0 0 0 0 0 0 0 0 0 0 0 0 0.07 0"/>
<feBlend mode="normal" in2="effect1_dropShadow_2258_6706" result="effect2_dropShadow_2258_6706"/>
<feColorMatrix in="SourceAlpha" type="matrix" values="0 0 0 0 0 0 0 0 0 0 0 0 0 0 0 0 0 0 127 0" result="hardAlpha"/>
<feOffset dy="2"/>
<feGaussianBlur stdDeviation="1"/>
<feComposite in2="hardAlpha" operator="out"/>
<feColorMatrix type="matrix" values="0 0 0 0 0 0 0 0 0 0 0 0 0 0 0 0 0 0 0.12 0"/>
<feBlend mode="normal" in2="effect2_dropShadow_2258_6706" result="effect3_dropShadow_2258_6706"/>
<feBlend mode="normal" in="SourceGraphic" in2="effect3_dropShadow_2258_6706" result="shape"/>
</filter>
<filter id="filter5_ddd_2258_6706" x="74.4355" y="148.873" width="68.2539" height="68.2549" filterUnits="userSpaceOnUse" color-interpolation-filters="sRGB">
<feFlood flood-opacity="0" result="BackgroundImageFix"/>
<feColorMatrix in="SourceAlpha" type="matrix" values="0 0 0 0 0 0 0 0 0 0 0 0 0 0 0 0 0 0 127 0" result="hardAlpha"/>
<feOffset dy="1"/>
<feGaussianBlur stdDeviation="2.5"/>
<feComposite in2="hardAlpha" operator="out"/>
<feColorMatrix type="matrix" values="0 0 0 0 0 0 0 0 0 0 0 0 0 0 0 0 0 0 0.02 0"/>
<feBlend mode="normal" in2="BackgroundImageFix" result="effect1_dropShadow_2258_6706"/>
<feColorMatrix in="SourceAlpha" type="matrix" values="0 0 0 0 0 0 0 0 0 0 0 0 0 0 0 0 0 0 127 0" result="hardAlpha"/>
<feOffset dy="3"/>
<feGaussianBlur stdDeviation="0.5"/>
<feComposite in2="hardAlpha" operator="out"/>
<feColorMatrix type="matrix" values="0 0 0 0 0 0 0 0 0 0 0 0 0 0 0 0 0 0 0.07 0"/>
<feBlend mode="normal" in2="effect1_dropShadow_2258_6706" result="effect2_dropShadow_2258_6706"/>
<feColorMatrix in="SourceAlpha" type="matrix" values="0 0 0 0 0 0 0 0 0 0 0 0 0 0 0 0 0 0 127 0" result="hardAlpha"/>
<feOffset dy="2"/>
<feGaussianBlur stdDeviation="1"/>
<feComposite in2="hardAlpha" operator="out"/>
<feColorMatrix type="matrix" values="0 0 0 0 0 0 0 0 0 0 0 0 0 0 0 0 0 0 0.12 0"/>
<feBlend mode="normal" in2="effect2_dropShadow_2258_6706" result="effect3_dropShadow_2258_6706"/>
<feBlend mode="normal" in="SourceGraphic" in2="effect3_dropShadow_2258_6706" result="shape"/>
</filter>
<filter id="filter6_ddd_2258_6706" x="148.873" y="0" width="68.2539" height="68.2549" filterUnits="userSpaceOnUse" color-interpolation-filters="sRGB">
<feFlood flood-opacity="0" result="BackgroundImageFix"/>
<feColorMatrix in="SourceAlpha" type="matrix" values="0 0 0 0 0 0 0 0 0 0 0 0 0 0 0 0 0 0 127 0" result="hardAlpha"/>
<feOffset dy="1"/>
<feGaussianBlur stdDeviation="2.5"/>
<feComposite in2="hardAlpha" operator="out"/>
<feColorMatrix type="matrix" values="0 0 0 0 0 0 0 0 0 0 0 0 0 0 0 0 0 0 0.02 0"/>
<feBlend mode="normal" in2="BackgroundImageFix" result="effect1_dropShadow_2258_6706"/>
<feColorMatrix in="SourceAlpha" type="matrix" values="0 0 0 0 0 0 0 0 0 0 0 0 0 0 0 0 0 0 127 0" result="hardAlpha"/>
<feOffset dy="3"/>
<feGaussianBlur stdDeviation="0.5"/>
<feComposite in2="hardAlpha" operator="out"/>
<feColorMatrix type="matrix" values="0 0 0 0 0 0 0 0 0 0 0 0 0 0 0 0 0 0 0.07 0"/>
<feBlend mode="normal" in2="effect1_dropShadow_2258_6706" result="effect2_dropShadow_2258_6706"/>
<feColorMatrix in="SourceAlpha" type="matrix" values="0 0 0 0 0 0 0 0 0 0 0 0 0 0 0 0 0 0 127 0" result="hardAlpha"/>
<feOffset dy="2"/>
<feGaussianBlur stdDeviation="1"/>
<feComposite in2="hardAlpha" operator="out"/>
<feColorMatrix type="matrix" values="0 0 0 0 0 0 0 0 0 0 0 0 0 0 0 0 0 0 0.12 0"/>
<feBlend mode="normal" in2="effect2_dropShadow_2258_6706" result="effect3_dropShadow_2258_6706"/>
<feBlend mode="normal" in="SourceGraphic" in2="effect3_dropShadow_2258_6706" result="shape"/>
</filter>
<filter id="filter7_ddd_2258_6706" x="148.873" y="74.4365" width="68.2539" height="68.2549" filterUnits="userSpaceOnUse" color-interpolation-filters="sRGB">
<feFlood flood-opacity="0" result="BackgroundImageFix"/>
<feColorMatrix in="SourceAlpha" type="matrix" values="0 0 0 0 0 0 0 0 0 0 0 0 0 0 0 0 0 0 127 0" result="hardAlpha"/>
<feOffset dy="1"/>
<feGaussianBlur stdDeviation="2.5"/>
<feComposite in2="hardAlpha" operator="out"/>
<feColorMatrix type="matrix" values="0 0 0 0 0 0 0 0 0 0 0 0 0 0 0 0 0 0 0.02 0"/>
<feBlend mode="normal" in2="BackgroundImageFix" result="effect1_dropShadow_2258_6706"/>
<feColorMatrix in="SourceAlpha" type="matrix" values="0 0 0 0 0 0 0 0 0 0 0 0 0 0 0 0 0 0 127 0" result="hardAlpha"/>
<feOffset dy="3"/>
<feGaussianBlur stdDeviation="0.5"/>
<feComposite in2="hardAlpha" operator="out"/>
<feColorMatrix type="matrix" values="0 0 0 0 0 0 0 0 0 0 0 0 0 0 0 0 0 0 0.07 0"/>
<feBlend mode="normal" in2="effect1_dropShadow_2258_6706" result="effect2_dropShadow_2258_6706"/>
<feColorMatrix in="SourceAlpha" type="matrix" values="0 0 0 0 0 0 0 0 0 0 0 0 0 0 0 0 0 0 127 0" result="hardAlpha"/>
<feOffset dy="2"/>
<feGaussianBlur stdDeviation="1"/>
<feComposite in2="hardAlpha" operator="out"/>
<feColorMatrix type="matrix" values="0 0 0 0 0 0 0 0 0 0 0 0 0 0 0 0 0 0 0.12 0"/>
<feBlend mode="normal" in2="effect2_dropShadow_2258_6706" result="effect3_dropShadow_2258_6706"/>
<feBlend mode="normal" in="SourceGraphic" in2="effect3_dropShadow_2258_6706" result="shape"/>
</filter>
<filter id="filter8_ddd_2258_6706" x="148.873" y="148.873" width="68.2539" height="68.2549" filterUnits="userSpaceOnUse" color-interpolation-filters="sRGB">
<feFlood flood-opacity="0" result="BackgroundImageFix"/>
<feColorMatrix in="SourceAlpha" type="matrix" values="0 0 0 0 0 0 0 0 0 0 0 0 0 0 0 0 0 0 127 0" result="hardAlpha"/>
<feOffset dy="1"/>
<feGaussianBlur stdDeviation="2.5"/>
<feComposite in2="hardAlpha" operator="out"/>
<feColorMatrix type="matrix" values="0 0 0 0 0 0 0 0 0 0 0 0 0 0 0 0 0 0 0.02 0"/>
<feBlend mode="normal" in2="BackgroundImageFix" result="effect1_dropShadow_2258_6706"/>
<feColorMatrix in="SourceAlpha" type="matrix" values="0 0 0 0 0 0 0 0 0 0 0 0 0 0 0 0 0 0 127 0" result="hardAlpha"/>
<feOffset dy="3"/>
<feGaussianBlur stdDeviation="0.5"/>
<feComposite in2="hardAlpha" operator="out"/>
<feColorMatrix type="matrix" values="0 0 0 0 0 0 0 0 0 0 0 0 0 0 0 0 0 0 0.07 0"/>
<feBlend mode="normal" in2="effect1_dropShadow_2258_6706" result="effect2_dropShadow_2258_6706"/>
<feColorMatrix in="SourceAlpha" type="matrix" values="0 0 0 0 0 0 0 0 0 0 0 0 0 0 0 0 0 0 127 0" result="hardAlpha"/>
<feOffset dy="2"/>
<feGaussianBlur stdDeviation="1"/>
<feComposite in2="hardAlpha" operator="out"/>
<feColorMatrix type="matrix" values="0 0 0 0 0 0 0 0 0 0 0 0 0 0 0 0 0 0 0.12 0"/>
<feBlend mode="normal" in2="effect2_dropShadow_2258_6706" result="effect3_dropShadow_2258_6706"/>
<feBlend mode="normal" in="SourceGraphic" in2="effect3_dropShadow_2258_6706" result="shape"/>
</filter>
<filter id="filter9_ddd_2258_6706" x="223.309" y="0" width="68.2539" height="68.2549" filterUnits="userSpaceOnUse" color-interpolation-filters="sRGB">
<feFlood flood-opacity="0" result="BackgroundImageFix"/>
<feColorMatrix in="SourceAlpha" type="matrix" values="0 0 0 0 0 0 0 0 0 0 0 0 0 0 0 0 0 0 127 0" result="hardAlpha"/>
<feOffset dy="1"/>
<feGaussianBlur stdDeviation="2.5"/>
<feComposite in2="hardAlpha" operator="out"/>
<feColorMatrix type="matrix" values="0 0 0 0 0 0 0 0 0 0 0 0 0 0 0 0 0 0 0.02 0"/>
<feBlend mode="normal" in2="BackgroundImageFix" result="effect1_dropShadow_2258_6706"/>
<feColorMatrix in="SourceAlpha" type="matrix" values="0 0 0 0 0 0 0 0 0 0 0 0 0 0 0 0 0 0 127 0" result="hardAlpha"/>
<feOffset dy="3"/>
<feGaussianBlur stdDeviation="0.5"/>
<feComposite in2="hardAlpha" operator="out"/>
<feColorMatrix type="matrix" values="0 0 0 0 0 0 0 0 0 0 0 0 0 0 0 0 0 0 0.07 0"/>
<feBlend mode="normal" in2="effect1_dropShadow_2258_6706" result="effect2_dropShadow_2258_6706"/>
<feColorMatrix in="SourceAlpha" type="matrix" values="0 0 0 0 0 0 0 0 0 0 0 0 0 0 0 0 0 0 127 0" result="hardAlpha"/>
<feOffset dy="2"/>
<feGaussianBlur stdDeviation="1"/>
<feComposite in2="hardAlpha" operator="out"/>
<feColorMatrix type="matrix" values="0 0 0 0 0 0 0 0 0 0 0 0 0 0 0 0 0 0 0.12 0"/>
<feBlend mode="normal" in2="effect2_dropShadow_2258_6706" result="effect3_dropShadow_2258_6706"/>
<feBlend mode="normal" in="SourceGraphic" in2="effect3_dropShadow_2258_6706" result="shape"/>
</filter>
<filter id="filter10_ddd_2258_6706" x="223.309" y="74.4365" width="68.2539" height="68.2549" filterUnits="userSpaceOnUse" color-interpolation-filters="sRGB">
<feFlood flood-opacity="0" result="BackgroundImageFix"/>
<feColorMatrix in="SourceAlpha" type="matrix" values="0 0 0 0 0 0 0 0 0 0 0 0 0 0 0 0 0 0 127 0" result="hardAlpha"/>
<feOffset dy="1"/>
<feGaussianBlur stdDeviation="2.5"/>
<feComposite in2="hardAlpha" operator="out"/>
<feColorMatrix type="matrix" values="0 0 0 0 0 0 0 0 0 0 0 0 0 0 0 0 0 0 0.02 0"/>
<feBlend mode="normal" in2="BackgroundImageFix" result="effect1_dropShadow_2258_6706"/>
<feColorMatrix in="SourceAlpha" type="matrix" values="0 0 0 0 0 0 0 0 0 0 0 0 0 0 0 0 0 0 127 0" result="hardAlpha"/>
<feOffset dy="3"/>
<feGaussianBlur stdDeviation="0.5"/>
<feComposite in2="hardAlpha" operator="out"/>
<feColorMatrix type="matrix" values="0 0 0 0 0 0 0 0 0 0 0 0 0 0 0 0 0 0 0.07 0"/>
<feBlend mode="normal" in2="effect1_dropShadow_2258_6706" result="effect2_dropShadow_2258_6706"/>
<feColorMatrix in="SourceAlpha" type="matrix" values="0 0 0 0 0 0 0 0 0 0 0 0 0 0 0 0 0 0 127 0" result="hardAlpha"/>
<feOffset dy="2"/>
<feGaussianBlur stdDeviation="1"/>
<feComposite in2="hardAlpha" operator="out"/>
<feColorMatrix type="matrix" values="0 0 0 0 0 0 0 0 0 0 0 0 0 0 0 0 0 0 0.12 0"/>
<feBlend mode="normal" in2="effect2_dropShadow_2258_6706" result="effect3_dropShadow_2258_6706"/>
<feBlend mode="normal" in="SourceGraphic" in2="effect3_dropShadow_2258_6706" result="shape"/>
</filter>
<filter id="filter11_ddd_2258_6706" x="223.309" y="148.873" width="68.2539" height="68.2549" filterUnits="userSpaceOnUse" color-interpolation-filters="sRGB">
<feFlood flood-opacity="0" result="BackgroundImageFix"/>
<feColorMatrix in="SourceAlpha" type="matrix" values="0 0 0 0 0 0 0 0 0 0 0 0 0 0 0 0 0 0 127 0" result="hardAlpha"/>
<feOffset dy="1"/>
<feGaussianBlur stdDeviation="2.5"/>
<feComposite in2="hardAlpha" operator="out"/>
<feColorMatrix type="matrix" values="0 0 0 0 0 0 0 0 0 0 0 0 0 0 0 0 0 0 0.02 0"/>
<feBlend mode="normal" in2="BackgroundImageFix" result="effect1_dropShadow_2258_6706"/>
<feColorMatrix in="SourceAlpha" type="matrix" values="0 0 0 0 0 0 0 0 0 0 0 0 0 0 0 0 0 0 127 0" result="hardAlpha"/>
<feOffset dy="3"/>
<feGaussianBlur stdDeviation="0.5"/>
<feComposite in2="hardAlpha" operator="out"/>
<feColorMatrix type="matrix" values="0 0 0 0 0 0 0 0 0 0 0 0 0 0 0 0 0 0 0.07 0"/>
<feBlend mode="normal" in2="effect1_dropShadow_2258_6706" result="effect2_dropShadow_2258_6706"/>
<feColorMatrix in="SourceAlpha" type="matrix" values="0 0 0 0 0 0 0 0 0 0 0 0 0 0 0 0 0 0 127 0" result="hardAlpha"/>
<feOffset dy="2"/>
<feGaussianBlur stdDeviation="1"/>
<feComposite in2="hardAlpha" operator="out"/>
<feColorMatrix type="matrix" values="0 0 0 0 0 0 0 0 0 0 0 0 0 0 0 0 0 0 0.12 0"/>
<feBlend mode="normal" in2="effect2_dropShadow_2258_6706" result="effect3_dropShadow_2258_6706"/>
<feBlend mode="normal" in="SourceGraphic" in2="effect3_dropShadow_2258_6706" result="shape"/>
</filter>
<filter id="filter12_ddd_2258_6706" x="297.746" y="0" width="68.2539" height="68.2549" filterUnits="userSpaceOnUse" color-interpolation-filters="sRGB">
<feFlood flood-opacity="0" result="BackgroundImageFix"/>
<feColorMatrix in="SourceAlpha" type="matrix" values="0 0 0 0 0 0 0 0 0 0 0 0 0 0 0 0 0 0 127 0" result="hardAlpha"/>
<feOffset dy="1"/>
<feGaussianBlur stdDeviation="2.5"/>
<feComposite in2="hardAlpha" operator="out"/>
<feColorMatrix type="matrix" values="0 0 0 0 0 0 0 0 0 0 0 0 0 0 0 0 0 0 0.02 0"/>
<feBlend mode="normal" in2="BackgroundImageFix" result="effect1_dropShadow_2258_6706"/>
<feColorMatrix in="SourceAlpha" type="matrix" values="0 0 0 0 0 0 0 0 0 0 0 0 0 0 0 0 0 0 127 0" result="hardAlpha"/>
<feOffset dy="3"/>
<feGaussianBlur stdDeviation="0.5"/>
<feComposite in2="hardAlpha" operator="out"/>
<feColorMatrix type="matrix" values="0 0 0 0 0 0 0 0 0 0 0 0 0 0 0 0 0 0 0.07 0"/>
<feBlend mode="normal" in2="effect1_dropShadow_2258_6706" result="effect2_dropShadow_2258_6706"/>
<feColorMatrix in="SourceAlpha" type="matrix" values="0 0 0 0 0 0 0 0 0 0 0 0 0 0 0 0 0 0 127 0" result="hardAlpha"/>
<feOffset dy="2"/>
<feGaussianBlur stdDeviation="1"/>
<feComposite in2="hardAlpha" operator="out"/>
<feColorMatrix type="matrix" values="0 0 0 0 0 0 0 0 0 0 0 0 0 0 0 0 0 0 0.12 0"/>
<feBlend mode="normal" in2="effect2_dropShadow_2258_6706" result="effect3_dropShadow_2258_6706"/>
<feBlend mode="normal" in="SourceGraphic" in2="effect3_dropShadow_2258_6706" result="shape"/>
</filter>
<filter id="filter13_ddd_2258_6706" x="297.746" y="74.4365" width="68.2539" height="68.2549" filterUnits="userSpaceOnUse" color-interpolation-filters="sRGB">
<feFlood flood-opacity="0" result="BackgroundImageFix"/>
<feColorMatrix in="SourceAlpha" type="matrix" values="0 0 0 0 0 0 0 0 0 0 0 0 0 0 0 0 0 0 127 0" result="hardAlpha"/>
<feOffset dy="1"/>
<feGaussianBlur stdDeviation="2.5"/>
<feComposite in2="hardAlpha" operator="out"/>
<feColorMatrix type="matrix" values="0 0 0 0 0 0 0 0 0 0 0 0 0 0 0 0 0 0 0.02 0"/>
<feBlend mode="normal" in2="BackgroundImageFix" result="effect1_dropShadow_2258_6706"/>
<feColorMatrix in="SourceAlpha" type="matrix" values="0 0 0 0 0 0 0 0 0 0 0 0 0 0 0 0 0 0 127 0" result="hardAlpha"/>
<feOffset dy="3"/>
<feGaussianBlur stdDeviation="0.5"/>
<feComposite in2="hardAlpha" operator="out"/>
<feColorMatrix type="matrix" values="0 0 0 0 0 0 0 0 0 0 0 0 0 0 0 0 0 0 0.07 0"/>
<feBlend mode="normal" in2="effect1_dropShadow_2258_6706" result="effect2_dropShadow_2258_6706"/>
<feColorMatrix in="SourceAlpha" type="matrix" values="0 0 0 0 0 0 0 0 0 0 0 0 0 0 0 0 0 0 127 0" result="hardAlpha"/>
<feOffset dy="2"/>
<feGaussianBlur stdDeviation="1"/>
<feComposite in2="hardAlpha" operator="out"/>
<feColorMatrix type="matrix" values="0 0 0 0 0 0 0 0 0 0 0 0 0 0 0 0 0 0 0.12 0"/>
<feBlend mode="normal" in2="effect2_dropShadow_2258_6706" result="effect3_dropShadow_2258_6706"/>
<feBlend mode="normal" in="SourceGraphic" in2="effect3_dropShadow_2258_6706" result="shape"/>
</filter>
<filter id="filter14_ddd_2258_6706" x="297.746" y="148.873" width="68.2539" height="68.2549" filterUnits="userSpaceOnUse" color-interpolation-filters="sRGB">
<feFlood flood-opacity="0" result="BackgroundImageFix"/>
<feColorMatrix in="SourceAlpha" type="matrix" values="0 0 0 0 0 0 0 0 0 0 0 0 0 0 0 0 0 0 127 0" result="hardAlpha"/>
<feOffset dy="1"/>
<feGaussianBlur stdDeviation="2.5"/>
<feComposite in2="hardAlpha" operator="out"/>
<feColorMatrix type="matrix" values="0 0 0 0 0 0 0 0 0 0 0 0 0 0 0 0 0 0 0.02 0"/>
<feBlend mode="normal" in2="BackgroundImageFix" result="effect1_dropShadow_2258_6706"/>
<feColorMatrix in="SourceAlpha" type="matrix" values="0 0 0 0 0 0 0 0 0 0 0 0 0 0 0 0 0 0 127 0" result="hardAlpha"/>
<feOffset dy="3"/>
<feGaussianBlur stdDeviation="0.5"/>
<feComposite in2="hardAlpha" operator="out"/>
<feColorMatrix type="matrix" values="0 0 0 0 0 0 0 0 0 0 0 0 0 0 0 0 0 0 0.07 0"/>
<feBlend mode="normal" in2="effect1_dropShadow_2258_6706" result="effect2_dropShadow_2258_6706"/>
<feColorMatrix in="SourceAlpha" type="matrix" values="0 0 0 0 0 0 0 0 0 0 0 0 0 0 0 0 0 0 127 0" result="hardAlpha"/>
<feOffset dy="2"/>
<feGaussianBlur stdDeviation="1"/>
<feComposite in2="hardAlpha" operator="out"/>
<feColorMatrix type="matrix" values="0 0 0 0 0 0 0 0 0 0 0 0 0 0 0 0 0 0 0.12 0"/>
<feBlend mode="normal" in2="effect2_dropShadow_2258_6706" result="effect3_dropShadow_2258_6706"/>
<feBlend mode="normal" in="SourceGraphic" in2="effect3_dropShadow_2258_6706" result="shape"/>
</filter>
</defs>
</svg>
