<svg width="48" height="48" viewBox="0 0 48 48" fill="none" xmlns="http://www.w3.org/2000/svg">
<path d="M25.6065 4.14256L38.0003 4.12891L17.207 24.9116L11.7878 30.3004L5.62207 24.127L25.6065 4.14256ZM25.4912 22.699C25.6521 22.4866 25.948 22.5913 26.1726 22.564L37.9896 22.567L27.2197 33.3263L21.022 27.1667L25.4912 22.699Z" fill="white"/>
<path d="M14.8438 33.3363L21.0216 27.166L27.2193 33.3257L27.2451 33.353L21.0232 39.5173L14.8438 33.3363V33.3363Z" fill="white"/>
<path d="M21.0234 39.5178L27.2453 33.3535L37.9941 44.1129C33.9453 44.122 29.898 44.1098 25.8507 44.1189C25.6201 44.1705 25.4774 43.9596 25.3302 43.8291L21.0234 39.5178V39.5178Z" fill="white"/>
</svg>
