<svg width="48" height="48" viewBox="0 0 48 48" fill="none" xmlns="http://www.w3.org/2000/svg">
<path d="M24.8984 20.375V28.0948H35.6073C35.1371 30.5774 33.7259 32.6796 31.6095 34.0931L38.0674 39.1128C41.83 35.6335 44.0007 30.5232 44.0007 24.4525C44.0007 23.0391 43.8741 21.6798 43.6389 20.3752L24.8984 20.375Z" fill="#4988EF"/>
<path d="M13.7468 27.793L12.2903 28.9099L7.13477 32.9328C10.4089 39.4384 17.1196 43.9326 24.898 43.9326C30.2704 43.9326 34.7746 42.1567 38.0669 39.1123L31.609 34.0926C29.8363 35.2886 27.5751 36.0136 24.898 36.0136C19.7244 36.0136 15.3288 32.5161 13.755 27.8045L13.7468 27.793Z" fill="#37AF57"/>
<path d="M7.13439 15.0664C5.77776 17.7483 5 20.7746 5 24.0002C5 27.2258 5.77776 30.2521 7.13439 32.934C7.13439 32.952 13.7552 27.7875 13.7552 27.7875C13.3572 26.5915 13.122 25.323 13.122 24C13.122 22.6769 13.3572 21.4085 13.7552 20.2125L7.13439 15.0664Z" fill="#FFC723"/>
<path d="M24.8984 12.0036C27.8289 12.0036 30.4337 13.0184 32.514 14.9756L38.2121 9.26735C34.757 6.04178 30.271 4.06641 24.8984 4.06641C17.12 4.06641 10.4089 8.54242 7.13477 15.0662L13.7554 20.2127C15.3291 15.5011 19.7248 12.0036 24.8984 12.0036Z" fill="#F46155"/>
</svg>
