<svg width="114" height="83" viewBox="0 0 114 83" fill="none" xmlns="http://www.w3.org/2000/svg">
<path d="M5.5784 3.19894C5.15736 2.48549 4.23767 2.24844 3.52422 2.66948C2.81077 3.09052 2.57372 4.01021 2.99476 4.72366L5.5784 3.19894ZM69.0673 76.0361L68.4495 74.6692L68.4493 74.6693L69.0673 76.0361ZM70.3167 45.3873L71.1116 46.6594L71.1117 46.6593L70.3167 45.3873ZM110.594 81.5231C110.883 82.2995 111.747 82.6947 112.523 82.4059C113.299 82.117 113.695 81.2534 113.406 80.477L110.594 81.5231ZM27.5751 10.8737C28.3629 11.1301 29.2094 10.6995 29.4658 9.91176C29.7223 9.12404 29.2917 8.27754 28.5039 8.02106L27.5751 10.8737ZM5.58991 2.1378L5.1232 3.56334L5.12551 3.5641L5.58991 2.1378ZM2.02698 5.16137L0.540859 5.36501L0.541339 5.36845L2.02698 5.16137ZM4.16588 26.4492C4.48334 27.2144 5.361 27.5774 6.12619 27.2599C6.89137 26.9424 7.25432 26.0648 6.93685 25.2996L4.16588 26.4492ZM4.28658 3.9613C2.99476 4.72366 2.99501 4.7241 2.99545 4.72484C2.99584 4.72549 2.99645 4.72654 2.99722 4.72784C2.99876 4.73045 3.00102 4.73426 3.00399 4.73928C3.00992 4.74932 3.0187 4.76417 3.0303 4.78374C3.05348 4.82289 3.08791 4.88093 3.13329 4.95725C3.22405 5.10988 3.35861 5.33557 3.53462 5.62919C3.88664 6.21643 4.40449 7.07546 5.06941 8.16523C6.39918 10.3447 8.31753 13.4477 10.6742 17.1458C15.3859 24.5394 21.857 34.3236 28.884 43.8659C35.9003 53.3936 43.516 62.7424 50.5181 69.2251C54.0136 72.4613 57.4259 75.0494 60.5924 76.571C63.7386 78.0827 66.9037 78.6607 69.6854 77.4028L68.4493 74.6693C66.8409 75.3966 64.6891 75.2111 61.8917 73.8669C59.1148 72.5326 55.957 70.1722 52.5562 67.0237C45.7656 60.7368 38.2836 51.5707 31.2997 42.087C24.3266 32.618 17.8951 22.8946 13.2041 15.5335C10.8595 11.8543 8.95156 8.76808 7.63036 6.60269C6.96979 5.52005 6.456 4.66775 6.10773 4.08676C5.9336 3.79628 5.80086 3.57363 5.71186 3.42395C5.66735 3.34911 5.63379 3.29251 5.61145 3.2548C5.60028 3.23594 5.59191 3.2218 5.58639 3.21247C5.58363 3.2078 5.58159 3.20433 5.58025 3.20208C5.57959 3.20095 5.57912 3.20016 5.57879 3.1996C5.57851 3.19912 5.5784 3.19894 4.28658 3.9613ZM69.6852 77.4029C71.2309 76.7042 72.3322 75.635 73.0351 74.2943C73.7224 72.9831 73.9891 71.49 74.0222 69.9692C74.0876 66.9665 73.2408 63.4702 72.3608 60.2045C71.4524 56.8336 70.5099 53.7067 70.1801 51.1216C69.8345 48.4137 70.281 47.1784 71.1116 46.6594L69.5218 44.1152C66.9976 45.6925 66.8561 48.7733 67.2042 51.5013C67.5679 54.3522 68.6007 57.7809 69.4641 60.9851C70.3559 64.2945 71.0776 67.3928 71.0229 69.9039C70.996 71.1401 70.7805 72.1336 70.378 72.9014C69.991 73.6397 69.3948 74.2419 68.4495 74.6692L69.6852 77.4029ZM71.1117 46.6593C73.1274 45.3995 75.8862 45.1307 79.2309 46.0213C82.5713 46.9107 86.3546 48.927 90.2111 52.0049C97.9179 58.1558 105.704 68.3781 110.594 81.5231L113.406 80.477C108.34 66.8618 100.247 56.1762 92.0825 49.6601C88.0033 46.4044 83.8529 44.1474 80.0028 43.1223C76.1571 42.0983 72.4686 42.2736 69.5217 44.1153L71.1117 46.6593ZM28.5039 8.02106L6.05432 0.711496L5.12551 3.5641L27.5751 10.8737L28.5039 8.02106ZM6.05663 0.712251C3.04364 -0.274175 0.117453 2.27504 0.540863 5.36501L3.51309 4.95773C3.38124 3.99549 4.28019 3.28735 5.1232 3.56334L6.05663 0.712251ZM0.541339 5.36845C1.00454 8.69159 1.67721 13.3757 2.34011 17.4867C2.67136 19.5409 3.00196 21.4632 3.30419 23.0054C3.59385 24.4834 3.8867 25.7763 4.16588 26.4492L6.93685 25.2996C6.79572 24.9594 6.55356 23.9866 6.24819 22.4284C5.95539 20.9344 5.63094 19.0499 5.30185 17.0091C4.64407 12.9299 3.97485 8.27054 3.51261 4.95429L0.541339 5.36845Z" fill="#E6F6FF"/>
</svg>
