<svg width="363" height="23" viewBox="0 0 363 23" fill="none" xmlns="http://www.w3.org/2000/svg">
<path d="M362.228 2.66794C362.036 2.47594 361.844 2.18794 361.652 2.18794C360.98 2.18794 360.404 1.80393 359.732 1.99593C359.06 1.80393 358.388 1.99594 357.62 1.89994C356.948 1.80394 356.276 1.89994 355.604 1.89994C354.932 1.89994 354.164 1.80393 353.396 1.80393C352.724 1.80393 352.052 1.80393 351.38 1.61193C351.092 1.51593 350.708 1.51593 350.324 1.61193C349.748 1.80393 349.268 1.80393 348.692 1.61193C348.308 1.51593 347.924 1.51593 347.636 1.61193C347.156 1.80393 346.772 1.80393 346.388 1.61193C345.428 1.80393 344.468 1.51593 343.508 1.51593H340.532C340.052 1.51593 339.476 1.70793 338.996 1.61193C337.364 1.32393 335.732 1.51593 334.004 1.51593C333.428 1.51593 332.852 1.51594 332.276 1.41994C331.796 1.32394 331.316 1.13193 330.74 1.22793C330.26 1.41993 329.588 0.939937 329.108 1.41994C329.012 1.51594 328.82 1.51594 328.628 1.41994C328.244 1.22794 327.86 1.22793 327.38 1.32393C326.996 1.41993 326.516 1.22793 326.036 1.22793H317.492C315.764 1.22793 314.036 1.32393 312.308 1.03593C312.212 0.939931 312.02 0.939931 311.828 1.03593C310.868 1.51593 309.812 1.03593 308.756 1.03593C308.372 1.03593 308.084 0.939931 307.7 1.03593C307.124 1.22793 306.452 1.13193 305.876 1.03593C305.3 0.939931 304.628 0.843928 304.052 1.22793C303.764 1.41993 303.572 1.13193 303.38 1.13193C302.612 1.13193 301.844 1.13194 301.172 0.939937C300.692 0.939937 300.404 1.22793 300.116 1.22793C299.828 1.22793 299.636 1.51593 299.348 1.22793C299.156 1.03593 299.06 0.939937 298.676 0.939937C298.196 0.939937 297.62 1.32393 297.044 1.03593C296.468 0.747931 295.892 1.13193 295.412 1.13193C295.22 1.13193 295.124 1.03593 294.932 1.03593C294.644 0.939931 294.452 0.939937 294.164 0.939937H287.924C287.732 0.939937 287.54 0.939928 287.348 1.22793C287.252 1.41993 287.252 1.32394 287.06 1.13193C286.964 1.03593 286.868 0.939937 286.676 0.939937C285.428 0.939937 284.084 1.03593 282.836 0.747929C282.74 0.651928 282.644 0.747929 282.548 0.747929C281.876 0.747929 281.3 0.843929 280.724 0.747929C280.148 0.651928 279.476 0.939929 278.9 0.747929C278.036 0.459929 277.268 0.747936 276.404 0.651935C275.732 0.555936 274.964 0.747929 274.292 0.747929C273.524 0.747929 272.852 0.651935 272.084 0.651935C269.396 0.651935 266.708 0.555931 264.02 0.555931C263.06 0.555931 262.1 0.555929 261.236 0.747929C260.852 0.843929 260.372 0.843929 259.988 0.747929C259.316 0.555929 258.644 0.555931 257.972 0.555931H255.956H253.94H252.02C251.348 0.459931 250.676 0.555938 250.1 0.459938C249.332 0.363938 248.756 0.555931 248.084 0.555931C247.892 0.555931 247.7 0.459938 247.412 0.459938C247.22 0.363938 247.028 0.267933 246.836 0.363933C245.972 0.555933 245.108 0.363929 244.244 0.267929C242.996 0.171929 241.652 0.459933 240.404 0.363933C240.212 0.267933 239.924 0.363938 239.732 0.459938C239.444 0.555938 239.156 0.459938 238.868 0.459938C238.004 0.459938 237.236 0.363933 236.372 0.363933C235.7 0.363933 234.932 0.267929 234.26 0.267929H233.204V0.651935V0.939937C233.108 1.03594 233.012 1.13193 232.916 1.03593C232.148 0.267931 231.284 0.555933 230.42 0.363933C229.748 0.555933 229.172 0.363933 228.5 0.363933C227.54 0.363933 226.676 0.171931 225.716 0.555931C225.524 0.555931 225.236 0.555938 224.948 0.459938C224.276 0.267938 223.508 0.267938 222.836 0.459938C222.452 0.555938 222.164 0.555938 221.78 0.459938C220.916 0.267938 220.148 0.459929 219.284 0.267929C218.9 0.267929 218.42 0.651933 218.036 0.363933C217.46 0.555933 216.98 0.171933 216.5 0.363933C215.924 0.555933 215.348 0.267929 214.772 0.267929C214.484 0.267929 214.196 0.363938 213.908 0.459938C213.524 0.459938 213.236 0.555938 212.948 0.459938C212.66 0.267938 212.372 0.363933 212.084 0.363933C211.316 0.363933 210.644 0.555933 209.876 0.363933C209.492 0.171933 209.108 0.363938 208.724 0.459938C208.244 0.459938 207.764 0.267929 207.284 0.267929H207.188C206.612 0.555929 206.132 0.459933 205.556 0.363933C205.076 0.171933 204.596 0.459933 204.116 0.363933C203.444 0.267933 202.676 0.267933 202.004 0.363933C201.236 0.459933 200.468 0.363929 199.7 0.267929L199.028 0.363933C198.452 0.459933 197.876 0.363933 197.204 0.363933C196.628 0.363933 195.956 0.555931 195.38 0.555931H185.972C185.588 0.65193 185.204 0.651935 184.724 0.651935C184.34 0.651935 183.86 0.555937 183.476 0.939937C183.38 1.03594 183.284 0.939937 183.188 0.939937L181.46 0.651935C180.98 0.651935 180.404 0.555936 179.924 0.651935C179.444 0.747936 179.06 0.747929 178.58 0.747929C178.1 0.747929 177.524 0.843933 177.044 0.843933C175.796 0.843933 174.644 1.03593 173.396 0.843933C172.724 0.747933 172.052 1.03594 171.284 0.939937C170.516 0.843937 169.748 1.13193 168.98 1.13193H166.772C166.676 1.13193 166.484 1.03593 166.292 1.03593C164.564 1.03593 162.836 1.41994 161.108 1.41994C160.628 1.41994 160.244 1.70793 159.86 1.61193C159.476 1.51593 158.996 1.61193 158.612 1.51593C157.076 1.13193 155.54 1.80393 154.004 1.70793C152.756 1.61193 151.508 1.70793 150.26 1.99593C149.3 2.18793 148.244 2.18794 147.188 2.18794C146.42 2.18794 145.556 1.99594 144.692 2.37994C144.596 2.47594 144.404 2.37993 144.308 2.47593C143.732 2.47593 143.252 2.28394 142.772 2.37994C142.196 2.47594 141.62 2.47593 141.044 2.47593C140.756 2.47593 140.372 2.47593 140.084 2.57193C139.604 2.76393 139.124 2.66793 138.548 2.76393C138.068 2.85993 137.492 2.76394 137.012 2.85994C135.764 3.14794 134.42 3.14793 133.172 3.05193C132.308 2.95593 131.54 3.43593 130.676 3.24393C130.484 3.24393 130.292 3.33993 130.1 3.43593C129.428 3.72393 128.756 3.43593 128.18 3.72393C127.412 3.53193 126.74 3.81993 125.972 3.81993C125.3 3.81993 124.532 3.91593 123.86 4.01193C122.516 4.20393 121.076 4.01193 119.732 4.29993C118.964 4.20393 118.292 4.68394 117.524 4.58794C115.796 4.39594 114.164 4.87594 112.436 5.06794C110.516 5.25994 108.596 5.64393 106.58 5.64393H106.1C105.236 5.93193 104.276 5.93193 103.412 6.02793C102.452 6.12393 101.396 6.31594 100.436 6.31594C100.34 6.31594 100.148 6.31593 99.956 6.41193C98.996 6.50793 98.036 6.79593 97.076 6.89193L95.732 7.08394C95.156 7.17994 94.676 7.37194 94.196 7.27594C93.62 7.17994 93.236 7.37193 92.852 7.46793C92.276 7.65993 91.796 7.46794 91.316 7.56394C89.972 7.85194 88.532 8.04394 87.188 8.04394C86.996 8.04394 86.804 8.04393 86.708 8.13993C86.036 8.52393 85.364 8.23594 84.692 8.52394C84.02 8.81194 83.348 8.71593 82.676 8.71593C81.908 8.71593 81.332 9.29193 80.564 9.19593C80.372 9.09993 79.988 9.38793 79.892 9.67593C79.796 9.86793 79.7 9.77193 79.7 9.67593C79.412 9.19593 78.932 9.29193 78.548 9.38793C78.068 9.48393 77.684 9.57994 77.204 9.77194C76.724 9.96394 76.244 9.67594 75.668 9.77194C74.804 9.96394 73.844 10.2519 72.98 10.2519C72.596 10.2519 72.116 10.2519 71.732 10.3479C70.196 10.7319 68.564 10.8279 67.028 11.2119C65.78 11.4999 64.532 11.5959 63.284 11.8839C62.9 11.9799 62.516 12.1719 62.132 12.1719C61.364 12.1719 60.692 12.3639 59.924 12.5559C59.252 12.7479 58.388 12.5559 57.716 13.1319C57.716 13.2279 57.524 13.2279 57.428 13.2279C56.468 13.2279 55.7 13.5159 54.74 13.6119C53.972 13.7079 53.396 14.0919 52.628 14.2839C51.38 14.5719 50.036 14.9559 48.692 15.2439C48.308 15.3399 47.828 15.3399 47.348 15.5319C46.772 15.7239 46.292 16.2039 45.62 15.9159H45.524C44.852 16.3959 43.988 16.2999 43.412 16.8759C43.22 17.0679 43.028 17.1639 42.836 17.1639C42.356 17.1639 41.972 17.2599 41.588 17.3559C40.82 17.5479 40.052 17.7399 39.284 17.8359C38.708 17.9319 38.132 17.7399 37.46 17.8359L35.636 18.1239C34.58 18.3159 33.524 18.2199 32.564 18.4119C31.988 18.5079 31.412 18.5079 30.836 18.6039C29.588 18.7959 28.244 18.7959 26.996 18.9879C26.324 19.0839 25.556 18.9879 24.98 19.2759C24.788 19.3719 24.5 19.3719 24.308 19.2759C23.924 19.0839 23.54 19.2759 23.156 19.2759C22.388 19.2759 21.62 19.4679 20.852 19.6599C20.18 19.8519 19.508 19.6599 18.836 19.6599C18.164 19.6599 17.492 20.0439 16.82 19.9479C15.86 19.8519 14.996 20.3319 14.036 20.1399C13.364 20.6199 12.5 20.3319 11.732 20.3319C11.348 20.3319 10.964 20.2359 10.484 20.3319C10.004 20.4279 9.524 20.6199 9.044 20.7159L8.66 21.9639C8.564 22.0599 8.66 22.0599 8.564 22.1559C8.468 22.0599 8.372 21.9639 8.372 21.8679C8.372 21.5799 8.276 21.2919 8.18 21.0999C7.988 20.7159 7.604 20.9079 7.316 20.9079H5.3C4.916 20.9079 4.532 20.9079 4.34 21.2919C4.148 21.4839 3.764 21.4839 3.572 21.7719C3.476 22.0599 3.38 21.9639 3.284 21.7719C3.284 21.4839 3.284 21.2919 2.9 21.3879C2.612 21.4839 2.324 21.3879 2.132 21.1959C1.652 20.7159 1.172 20.8119 0.5 21.0999C0.98 21.4839 1.364 21.8679 1.748 22.2519C1.748 22.2519 1.844 22.3479 1.844 22.2519C2.42 22.0599 2.9 22.4439 3.38 22.4439C3.668 22.3479 4.052 22.4439 4.244 22.3479C4.724 22.0599 5.204 22.4439 5.588 22.2519C6.164 21.9639 6.644 22.2519 7.124 22.3479H8.372C8.468 22.3479 8.468 22.2519 8.564 22.2519C8.852 22.2519 9.62 22.3479 9.908 22.1559C10.1 22.0599 10.388 22.1559 10.58 22.1559C11.252 22.1559 12.02 22.1559 12.692 21.9639C13.46 21.7719 14.228 22.0599 14.996 22.0599H15.764C16.724 21.7719 17.78 21.7719 18.74 21.7719C19.124 21.7719 19.604 21.7719 19.988 21.6759C20.66 21.4839 21.332 21.3879 22.004 21.3879C22.292 21.3879 22.484 21.4839 22.772 21.3879C23.732 21.0999 24.596 21.0999 25.556 21.0999C26.324 21.0999 27.092 21.0039 27.86 20.9079L29.972 20.6199C30.548 20.6199 31.124 20.7159 31.7 20.6199C31.892 20.5239 31.988 20.7159 32.084 20.9079C32.276 21.1959 32.276 20.9079 32.372 20.8119C32.564 20.3319 32.564 20.3319 32.852 20.5239C33.332 20.8119 33.812 20.7159 34.484 20.7159C34.58 20.7159 34.676 21.1959 34.964 20.9079C35.252 20.6199 35.732 20.6199 36.212 20.5239L38.996 20.0439C39.38 20.0439 39.764 19.9479 40.244 20.0439C41.108 20.0439 42.068 20.1399 42.932 19.7559C43.412 19.5639 43.892 19.5639 44.372 19.6599C44.948 19.7559 45.428 19.5639 46.004 19.5639C46.292 19.5639 46.58 19.4679 46.772 19.4679C47.444 19.6599 48.116 19.3719 48.788 19.3719C49.364 19.3719 49.94 18.8919 50.612 19.2759C50.804 19.2759 50.996 19.1799 51.188 19.1799C51.476 19.0839 51.764 19.0839 51.956 18.9879H54.356C55.124 19.0839 55.892 18.7959 56.66 18.7959C58.004 18.7959 59.348 18.7959 60.692 18.6039L62.708 18.3159C63.38 18.2199 63.956 18.3159 64.628 18.3159C64.82 18.3159 65.012 18.3159 65.108 18.2199C65.78 17.9319 66.452 18.0279 67.124 18.0279C67.604 18.0279 68.18 18.1239 68.66 17.9319C69.236 17.5479 69.716 18.1239 70.292 18.0279C70.388 17.9319 70.58 18.0279 70.676 17.9319C71.444 17.6439 72.404 17.7399 73.268 17.7399C74.228 17.7399 75.284 17.8359 76.148 17.3559C76.34 17.2599 76.436 17.2599 76.628 17.3559C76.82 17.4519 77.108 17.3559 77.396 17.4519C78.068 17.6439 78.74 16.9719 79.508 17.2599C80.372 16.9719 81.332 17.1639 82.292 17.0679C82.964 16.9719 83.54 16.5879 84.212 16.6839C84.884 16.7799 85.556 16.9719 86.228 16.6839C86.42 16.5879 86.612 16.5879 86.708 16.5879C87.188 16.9719 87.764 16.5879 88.34 16.6839C88.916 16.7799 89.492 16.5879 90.068 16.4919C90.452 16.3959 90.836 16.2039 91.22 16.4919C92.084 16.2999 92.852 16.5879 93.716 16.3959C94.58 16.2039 95.444 16.2039 96.308 16.2039C98.228 16.2039 100.148 15.8199 102.068 15.8199H102.548C102.932 15.6279 103.412 15.4359 103.892 15.3399C104.372 15.2439 104.756 15.6279 105.236 15.5319C105.716 15.4359 106.292 15.3399 106.772 15.5319C106.964 15.5319 107.348 15.5319 107.54 15.4359C108.212 15.1479 108.884 15.2439 109.556 15.2439C110.324 15.2439 110.996 15.1479 111.764 15.2439C112.436 15.3399 113.108 15.0519 113.78 15.0519C114.452 15.0519 115.22 15.0519 115.892 14.8599C116.756 14.5719 117.524 14.6679 118.388 14.6679C119.444 14.6679 120.5 14.6679 121.556 14.2839H122.324C123.956 14.2839 125.492 14.1879 127.028 14.1879C127.412 14.1879 127.508 13.7079 127.796 13.8999C128.084 13.9959 128.372 13.9959 128.756 13.9959H132.02C132.5 13.8999 132.98 13.8999 133.364 13.8039C133.844 13.7079 134.228 13.7079 134.612 13.7079C137.396 13.7079 140.276 13.2279 143.06 13.2279C143.636 13.2279 144.116 13.1319 144.692 13.1319C145.46 12.9399 146.132 12.8439 146.9 13.0359C147.284 13.1319 147.86 13.0359 148.244 12.9399C149.396 12.6519 150.644 12.7479 151.796 12.7479C152.468 12.7479 153.236 12.8439 153.812 12.3639C153.812 12.2679 154.004 12.2679 154.1 12.2679C155.06 12.5559 156.116 12.3639 157.172 12.3639C157.748 12.3639 158.324 12.4599 158.9 12.2679C159.476 12.0759 160.148 12.0759 160.724 12.0759C161.204 12.0759 161.78 12.1719 162.26 11.9799C162.548 11.8839 162.836 11.7879 163.028 11.8839C163.892 11.9799 164.756 11.7879 165.62 11.7879C166.868 11.7879 168.02 11.7879 169.268 11.6919C171.092 11.5959 173.108 11.4999 174.932 11.2119C175.508 11.1159 176.18 11.2119 176.66 11.1159C177.236 11.0199 177.812 11.3079 178.388 11.0199C178.964 10.7319 179.54 11.0199 180.02 10.9239C181.172 10.7319 182.228 10.8279 183.284 10.8279C184.148 10.8279 185.012 10.8279 185.78 10.7319C186.644 10.6359 187.412 10.5399 188.276 10.5399C188.948 10.5399 189.62 10.4439 190.292 10.4439C191.252 10.4439 192.212 10.2519 193.268 10.2519C194.228 10.2519 195.284 9.86793 196.34 10.1559C196.532 10.1559 196.724 10.1559 196.916 10.0599C197.204 10.0599 197.396 9.86793 197.684 9.86793H199.7C200.468 9.96393 201.14 9.57993 201.812 9.86793C202.868 9.67593 203.924 9.86793 204.98 9.57993C205.652 9.38793 206.42 9.48393 207.188 9.57993C207.764 9.67593 208.34 9.67594 208.916 9.48394C209.012 9.38794 209.204 9.29193 209.396 9.38793C209.876 9.57993 210.26 9.48393 210.74 9.38793C211.22 9.29193 211.796 9.29194 212.276 9.29194C212.852 9.29194 213.428 9.00394 214.004 9.00394H214.1C214.58 9.19594 215.06 9.09994 215.444 9.00394C215.732 8.90794 216.116 9.00393 216.404 9.09993C216.692 9.19593 216.98 9.19593 217.268 9.09993C217.556 9.00393 217.94 9.00394 218.228 9.00394C219.38 9.00394 220.628 9.00393 221.78 8.90793C222.74 8.81193 223.7 8.71593 224.564 8.71593C226.196 8.71593 227.828 8.52394 229.364 8.52394C230.132 8.52394 230.9 8.42793 231.668 8.33193C232.436 8.23593 233.204 8.33193 233.972 8.33193C234.356 8.33193 234.74 8.23593 235.124 8.23593C235.316 8.13993 235.604 8.04393 235.796 8.13993C236.756 8.61993 237.908 7.94793 238.868 8.13993C239.252 8.23593 239.732 8.13994 240.116 8.04394H241.556H242.804C243.284 8.04394 243.764 8.04394 244.148 7.75594C244.532 7.46794 244.916 7.94793 245.204 7.85193C245.78 7.65993 246.356 7.75594 246.932 7.75594C247.508 7.75594 248.084 7.56393 248.756 7.65993C249.236 7.75593 249.812 7.56393 250.292 7.65993H252.308C253.076 7.56393 253.94 7.37193 254.708 7.46793C256.34 7.65993 257.972 7.27594 259.508 7.27594C260.276 7.27594 260.948 7.37194 261.716 7.27594C262.388 7.17994 263.156 7.08394 263.828 7.08394C264.596 7.08394 265.364 6.79594 266.132 7.08394C266.324 7.08394 266.516 6.98793 266.708 6.98793C266.9 6.89193 267.188 6.79593 267.38 6.89193C268.532 7.08393 269.78 6.50793 271.028 6.98793C271.124 6.98793 271.316 6.98793 271.412 6.89193C271.892 6.79593 272.372 6.79594 272.852 6.79594C274.004 6.79594 275.156 6.69993 276.308 6.69993C276.692 6.69993 276.98 6.60394 277.364 6.60394C277.748 6.60394 278.228 6.79594 278.612 6.60394C279.092 6.41194 279.476 6.79593 279.956 6.69993C282.164 6.21993 284.276 6.41193 286.484 6.41193C287.252 6.41193 287.924 6.50793 288.596 6.21993C288.788 6.12393 289.076 6.12393 289.268 6.21993C289.652 6.41193 289.94 6.31593 290.324 6.21993C290.804 6.12393 291.284 6.12393 291.764 6.21993C292.148 6.31593 292.628 6.31593 293.012 5.93193C293.204 5.73993 293.204 5.73993 293.396 5.93193C293.684 6.21993 293.972 6.21993 294.26 6.21993C295.028 6.21993 295.796 6.21993 296.564 6.12393C297.14 6.02793 297.716 6.02793 298.292 6.12393C298.868 6.21993 299.348 5.83593 299.828 6.12393C300.404 5.83593 300.98 6.02793 301.46 5.93193C302.132 5.83593 302.804 5.93193 303.476 5.93193C303.668 5.93193 303.956 6.12393 304.148 6.02793C304.82 5.73993 305.588 6.02794 306.26 5.83594C307.028 5.64394 307.796 5.83594 308.564 5.83594C309.812 5.83594 311.06 5.73993 312.308 5.73993C312.692 5.83593 313.172 5.54793 313.556 5.64393C313.94 5.73993 314.324 5.73993 314.708 5.64393C315.092 5.54793 315.476 5.54793 315.86 5.64393C316.244 5.73993 316.628 5.73993 317.012 5.64393C317.3 5.54793 317.684 5.54793 317.972 5.45193C318.26 5.25993 318.644 5.25994 319.028 5.35594C319.508 5.45194 319.988 5.45194 320.564 5.54794C321.14 5.64394 321.812 5.45194 322.388 5.54794C322.964 5.64394 323.54 5.54794 324.116 5.35594C324.404 5.25994 324.596 5.25994 324.884 5.35594C325.268 5.45194 325.556 5.45194 325.94 5.35594C326.9 5.35594 327.764 5.25993 328.724 5.25993H329.012C329.684 5.64393 330.452 5.35594 331.124 5.35594C331.988 5.35594 332.852 5.25993 333.812 5.25993C334.388 5.16393 335.06 5.25993 335.636 5.25993H337.652C338.324 5.25993 339.092 5.35593 339.668 5.16393C340.436 4.87593 341.012 5.16393 341.684 5.16393H342.836C343.7 5.16393 344.564 5.16394 345.428 5.06794C346.292 4.97194 347.252 5.16393 348.212 5.16393H350.42C351.38 5.16393 352.436 4.97193 353.396 4.97193H357.812C358.964 4.97193 360.212 4.87594 361.364 4.87594C361.94 4.87594 362.036 4.58794 362.036 4.10794V3.62794C362.036 3.53194 362.132 3.33993 362.228 3.24393C362.42 3.05193 362.42 2.85994 362.228 2.66794ZM288.788 3.43593C288.404 3.24393 287.924 3.33993 287.444 3.53193C287.06 3.72393 286.676 3.72393 286.196 3.72393H279.956C278.996 3.72393 278.036 3.81993 277.076 3.72393C276.404 3.62793 275.732 4.01193 275.06 4.01193H271.412C270.932 4.01193 270.548 4.01194 270.068 4.10794C269.684 4.20394 269.204 4.10793 268.82 4.01193C267.86 3.81993 266.9 4.29994 265.94 4.10794C264.596 4.39594 263.156 4.29993 261.812 4.29993C261.14 4.39593 260.468 4.29994 259.796 4.39594C259.22 4.49194 258.548 4.58794 257.972 4.58794C257.204 4.39594 256.436 4.68394 255.668 4.58794C254.9 4.49194 254.132 4.68393 253.364 4.68393C252.596 4.68393 251.924 4.58793 251.156 4.77993C250.676 4.87593 250.196 4.87594 249.62 4.87594C248.948 4.87594 248.18 4.77993 247.508 4.97193C246.74 5.16393 245.972 4.97193 245.204 4.97193C243.764 4.97193 242.324 5.16393 240.884 5.25993C240.5 5.35593 240.116 5.35594 239.828 5.35594C238.388 5.35594 236.948 5.16394 235.604 5.54794H234.836C232.916 5.54794 230.996 5.45193 229.076 5.73993C227.444 5.64393 225.908 5.93193 224.276 5.93193C223.316 5.93193 222.356 5.93193 221.396 6.02793C220.82 5.73993 220.244 6.21993 219.668 6.12393C218.612 6.12393 217.556 6.21993 216.596 6.21993C216.116 6.21993 215.732 6.21994 215.348 6.31594C214.964 6.41194 214.58 6.50793 214.196 6.50793H210.452C209.108 6.50793 207.764 6.69994 206.516 6.79594C205.556 6.89194 204.596 6.79593 203.636 6.89193C202.58 6.98793 201.62 6.89194 200.564 7.08394C199.604 7.27594 198.644 7.17993 197.78 7.17993C196.436 7.17993 195.092 7.37193 193.748 7.46793C192.98 7.85193 192.116 7.65994 191.348 7.56394C190.676 7.46794 190.004 7.46794 189.332 7.56394C188.66 7.65994 188.084 7.75594 187.412 7.75594C186.452 7.75594 185.492 7.85194 184.532 8.04394C183.572 8.23594 182.612 8.04393 181.652 8.13993C180.5 8.23593 179.252 8.13993 178.004 8.33193C177.428 8.42793 176.756 8.42793 176.084 8.42793H173.204C173.012 8.42793 172.916 8.42794 172.724 8.52394C172.052 8.81194 171.284 8.71593 170.612 8.71593C169.94 8.71593 169.364 8.81194 168.692 8.81194C168.404 8.81194 168.116 8.90794 167.828 8.81194H167.348C165.716 9.09994 164.18 9.00394 162.548 9.29194C162.068 9.38794 161.492 9.29194 161.012 9.29194C160.532 9.29194 160.052 9.29193 159.572 9.38793C158.324 9.67593 156.98 9.67593 155.732 9.67593C155.252 9.67593 154.676 9.77193 154.196 9.67593C153.236 9.67593 152.276 9.96394 151.316 9.96394H148.436H148.34C147.764 9.96394 147.38 10.4439 146.708 10.2519C146.132 10.0599 145.556 10.2519 144.98 10.3479C144.884 10.4439 144.692 10.3479 144.596 10.3479C143.636 10.3479 142.676 10.2519 141.812 10.4439C141.332 10.5399 140.852 10.6359 140.372 10.6359C139.124 10.6359 137.876 10.6359 136.628 10.8279C135.572 11.0199 134.324 10.9239 133.268 10.9239C132.596 10.9239 132.02 11.0199 131.348 11.1159C130.58 11.2119 129.812 11.2119 129.044 11.2119C128.66 11.2119 128.18 11.2119 127.796 11.4039C127.412 11.5959 127.124 11.4999 126.74 11.4999C126.164 11.4999 125.492 11.4039 125.012 11.5959C124.436 11.7879 123.86 11.5959 123.38 11.7879C123.188 11.7879 122.996 11.8839 122.9 11.7879C121.844 11.4039 120.884 11.8839 119.828 11.8839C118.868 11.8839 117.908 11.8839 116.852 12.0759C115.892 12.2679 114.836 12.0759 113.78 12.1719C112.724 12.2679 111.572 12.1719 110.516 12.4599C110.132 12.5559 109.652 12.4599 109.268 12.4599C108.5 12.4599 107.732 12.4599 106.964 12.6519C106.772 12.7479 106.484 12.7479 106.292 12.7479C105.332 12.7479 104.372 12.7479 103.412 13.0359C103.028 13.1319 102.644 13.0359 102.26 13.0359C100.82 13.0359 99.38 12.9399 97.94 13.3239C97.172 13.5159 96.404 13.4199 95.636 13.4199C94.196 13.4199 92.852 13.7079 91.412 13.7079C90.74 13.9959 90.068 13.6119 89.396 13.8039C88.628 13.9959 87.86 13.9959 87.092 13.9959C86.036 13.9959 85.076 14.1879 84.02 14.3799C83.444 14.4759 82.772 14.4759 82.1 14.4759H81.524C79.892 14.4759 78.356 14.7639 76.724 14.7639C76.052 14.7639 75.284 14.8599 74.612 14.9559C72.98 15.1479 71.348 15.3399 69.812 15.3399C69.524 15.3399 69.428 15.4359 69.14 15.4359C68.564 15.6279 67.988 15.9159 67.412 15.6279C67.22 15.5319 66.932 15.6279 66.74 15.5319C66.164 15.5319 65.588 15.9159 64.916 15.7239C64.244 15.5319 63.572 15.8199 62.9 15.9159H61.076H60.692C59.828 16.2999 58.868 16.2039 57.908 16.2039C57.044 16.2039 56.084 16.3959 55.124 16.2999L54.452 16.3959C53.684 16.4919 53.012 16.5879 52.052 16.3959C53.972 16.0119 55.7 15.6279 57.332 15.2439C57.716 15.1479 58.1 15.0519 58.388 14.8599C58.58 14.8599 58.676 14.7639 58.868 14.7639C59.828 15.0519 60.692 14.5719 61.556 14.4759C63.092 14.2839 64.532 13.9959 66.068 13.6119C66.26 13.6119 66.548 13.6119 66.74 13.5159C67.412 13.2279 68.084 13.2279 68.756 13.2279C69.428 13.2279 70.196 13.0359 70.868 12.8439C71.06 12.8439 71.252 12.7479 71.444 12.7479C73.268 12.7479 74.996 11.8839 76.724 11.8839C76.82 11.8839 77.012 11.7879 77.204 11.7879C78.548 11.7879 79.892 11.4999 81.332 11.3079C81.524 11.2119 81.716 11.2119 81.908 11.2119C82.58 11.2119 83.252 11.0199 83.924 10.9239C84.404 10.7319 84.98 10.4439 85.556 10.7319C85.652 10.8279 85.748 10.7319 85.844 10.7319C87.092 10.1559 88.436 10.1559 89.684 10.1559C90.164 10.1559 90.548 10.1559 90.836 9.86793C91.028 9.67593 91.22 9.67594 91.412 9.77194C91.508 9.77194 91.7 9.86793 91.7 9.86793C92.948 9.38793 94.196 9.77193 95.444 9.38793C96.02 9.19593 96.5 9.48394 97.076 9.29194C97.652 9.09994 98.228 9.00394 98.804 9.00394C99.284 9.00394 99.86 9.00394 100.34 8.81194C100.916 8.71594 101.492 8.71593 102.068 8.71593C102.836 8.71593 103.508 8.42793 104.276 8.13993C104.468 7.75593 104.564 7.94793 104.756 8.13993C104.852 8.23593 104.948 8.23593 105.044 8.23593C105.524 8.04393 106.004 8.04394 106.388 8.04394C106.772 8.04394 107.156 7.85193 107.444 7.94793C107.732 8.04393 108.116 8.04393 108.404 7.94793C108.788 7.85193 109.172 7.56393 109.556 7.65993C109.94 7.75593 110.42 7.75594 110.804 7.75594C111.764 7.56394 112.724 7.56393 113.588 7.37193C114.548 7.17993 115.508 7.08394 116.468 7.08394C116.948 7.08394 117.428 7.17993 117.908 6.89193C118.1 6.79593 118.292 6.89194 118.484 6.79594C119.348 6.79594 120.116 6.60394 120.98 6.60394C121.076 6.60394 121.268 6.50793 121.46 6.50793C122.612 6.79593 123.86 6.21993 125.108 6.41193C126.164 6.12393 127.22 6.31593 128.276 5.93193C128.564 5.83593 128.852 5.93193 129.044 5.93193C130.388 5.93193 131.636 6.02794 132.98 5.54794C133.268 5.45194 133.556 5.45193 133.844 5.45193C134.996 5.45193 136.148 5.25993 137.3 5.25993C137.684 5.25993 138.068 5.06793 138.452 5.16393C139.028 5.25993 139.7 5.25993 140.372 5.16393C141.332 5.06793 142.388 4.97193 143.348 4.68393C143.636 4.58793 144.02 4.58794 144.308 4.58794C145.748 4.58794 147.092 4.68393 148.532 4.49193C149.78 4.68393 151.028 4.29993 152.372 4.29993C153.236 4.29993 154.1 4.20393 154.964 4.20393H155.924C156.692 3.91593 157.556 3.91594 158.324 4.10794H159.284C159.86 3.91594 160.532 3.91593 161.108 3.91593C161.876 3.91593 162.644 4.01193 163.412 3.81993C163.892 3.72393 164.276 3.62793 164.66 3.72393C165.524 3.72393 166.292 3.81993 167.156 3.53193C167.348 3.53193 167.54 3.53194 167.732 3.62794C168.5 3.62794 169.172 3.72393 169.844 3.43593C170.036 3.43593 170.324 3.33993 170.516 3.43593C171.284 3.81993 172.148 3.81993 172.916 3.53193C173.492 3.33993 174.068 3.62793 174.644 3.43593C175.124 3.24393 175.796 3.33994 176.276 3.33994H179.924C180.308 3.24393 180.788 3.24394 181.172 3.14794C181.46 3.05194 181.844 3.05194 182.228 3.14794C182.42 3.33994 182.708 3.24394 182.996 3.14794C183.188 3.05194 183.476 3.05194 183.764 3.14794C184.052 3.33994 184.436 3.24393 184.82 3.24393C185.588 3.24393 186.356 2.95593 187.124 3.05193C187.796 3.14793 188.372 2.85993 188.948 2.95593C189.524 3.05193 190.1 3.05193 190.676 3.05193C191.156 3.05193 191.636 3.05194 192.02 2.85994H192.5C193.172 3.05194 193.94 3.14794 194.612 2.85994C194.804 2.76394 194.996 2.76393 195.092 2.76393C195.764 3.05193 196.436 2.95593 197.108 2.76393H197.684C198.548 2.76393 199.412 2.85993 200.372 2.76393C201.236 2.66793 202.1 2.66794 202.964 2.85994C203.444 2.76394 204.02 2.76393 204.5 2.95593C204.884 2.66793 205.364 2.95594 205.844 2.85994C206.036 2.66794 206.324 2.76394 206.612 2.85994C206.9 2.95594 207.188 2.95594 207.476 2.66794L207.86 2.57193C208.82 2.76393 209.78 2.57193 210.836 2.57193H210.932C213.332 2.57193 215.732 2.37993 218.132 2.76393C218.804 2.85993 219.572 2.85993 220.244 2.47593H220.532C221.3 2.95593 222.164 2.57194 222.836 2.66794C223.7 2.76394 224.468 2.66794 225.236 2.66794C226.58 2.66794 227.924 2.66794 229.268 2.85994C229.94 2.95594 230.612 2.95594 231.284 2.85994C231.956 2.76394 232.628 2.76393 233.3 2.76393C234.068 2.76393 234.932 2.85994 235.796 2.66794C236.084 2.47594 236.276 2.66793 236.468 2.76393C236.852 2.95593 237.236 3.05194 237.716 2.85994C238.1 2.66794 238.484 2.76393 238.868 2.76393C239.636 2.76393 240.308 2.85993 241.076 2.76393C241.748 2.66793 242.516 2.95593 243.188 2.95593C243.38 2.95593 243.668 2.95594 243.86 2.85994C244.436 2.57194 245.204 2.66793 245.876 2.76393C246.452 2.85993 247.124 2.57194 247.796 2.85994C247.988 2.95594 248.18 2.85994 248.372 2.85994C249.14 2.66794 250.004 2.66794 250.772 2.85994C251.156 2.95594 251.636 3.05194 252.116 2.85994C252.212 2.76394 252.404 2.76393 252.596 2.76393C253.076 3.05193 253.652 2.76394 254.228 2.85994C255.188 3.05194 256.148 2.85994 257.108 2.85994C258.26 2.85994 259.508 2.85993 260.66 2.95593C261.908 3.05193 263.156 3.14794 264.404 2.85994L264.5 2.76393C265.364 3.24393 266.228 2.66793 267.092 2.95593C267.38 3.05193 267.572 2.95593 267.86 3.05193C268.82 3.14793 269.78 2.85993 270.836 2.95593C271.796 3.05193 272.756 3.05193 273.716 3.05193C274.1 3.05193 274.388 3.05193 274.676 2.95593C275.06 2.85993 275.444 2.95594 275.732 2.85994C276.116 2.76394 276.308 2.85993 276.596 2.95593C276.98 3.05193 277.268 3.05193 277.556 2.95593C278.036 2.66793 278.42 3.05194 278.9 2.85994C280.148 3.05194 281.492 2.95593 282.74 2.95593C283.028 2.95593 283.316 3.05193 283.604 3.05193C284.948 3.05193 286.292 3.24394 287.54 2.85994C287.924 3.14794 288.404 2.76393 288.884 2.95593C289.268 3.14793 289.652 3.14794 290.132 3.14794C289.748 3.53194 289.364 3.72393 288.788 3.43593Z" fill="#E6F6FF"/>
</svg>
