<svg width="32" height="32" viewBox="0 0 32 32" fill="none" xmlns="http://www.w3.org/2000/svg">
<circle cx="16" cy="16" r="16" fill="#C6C0FC"/>
<circle cx="16" cy="16" r="16" fill="#89D4F0" fill-opacity="0.16"/>
<path d="M23.0833 12.0653L16 16.0005M16 16.0005L8.91664 12.0653M16 16.0005L16 23.9171M23.5 19.3826V12.6183C23.5 12.3328 23.5 12.19 23.4579 12.0627C23.4207 11.9501 23.3599 11.8467 23.2795 11.7594C23.1886 11.6608 23.0638 11.5915 22.8142 11.4528L16.6475 8.02688C16.4112 7.89558 16.293 7.82993 16.1679 7.80419C16.0571 7.78141 15.9429 7.78141 15.8321 7.80419C15.707 7.82993 15.5888 7.89558 15.3525 8.02688L9.18581 11.4528C8.93621 11.5915 8.8114 11.6608 8.72053 11.7594C8.64013 11.8467 8.57929 11.9501 8.54207 12.0627C8.5 12.19 8.5 12.3328 8.5 12.6183V19.3826C8.5 19.6681 8.5 19.8109 8.54207 19.9382C8.57929 20.0509 8.64013 20.1543 8.72053 20.2415C8.8114 20.3401 8.93621 20.4095 9.18581 20.5481L15.3525 23.9741C15.5888 24.1054 15.707 24.171 15.8321 24.1968C15.9429 24.2195 16.0571 24.2195 16.1679 24.1968C16.293 24.171 16.4112 24.1054 16.6475 23.9741L22.8142 20.5481C23.0638 20.4095 23.1886 20.3401 23.2795 20.2415C23.3599 20.1543 23.4207 20.0509 23.4579 19.9382C23.5 19.8109 23.5 19.6681 23.5 19.3826Z" stroke="#0E0B1E" stroke-width="2" stroke-linecap="round" stroke-linejoin="round"/>
<path d="M19.75 13.9167L12.25 9.75" stroke="#0E0B1E" stroke-width="2" stroke-linecap="round" stroke-linejoin="round"/>
</svg>
