<svg width="33" height="33" viewBox="0 0 33 33" fill="none" xmlns="http://www.w3.org/2000/svg">
<circle cx="16.2441" cy="16.2568" r="16" fill="#0E0B1E"/>
<circle cx="16.2441" cy="16.2568" r="16" fill="#BCC3F9"/>
<path d="M14.993 13.5019C15.1398 13.0845 15.4297 12.7325 15.8111 12.5083C16.1926 12.2841 16.6411 12.2022 17.0772 12.277C17.5133 12.3518 17.9088 12.5785 18.1938 12.917C18.4788 13.2555 18.6347 13.6839 18.634 14.1264C18.634 15.3755 16.7604 16 16.7604 16M16.7846 18.5H16.7929M16.6597 22.6667C20.5717 22.6667 23.743 19.4953 23.743 15.5833C23.743 11.6713 20.5717 8.5 16.6597 8.5C12.7477 8.5 9.57635 11.6713 9.57635 15.5833C9.57635 16.375 9.70622 17.1363 9.94582 17.8472C10.036 18.1147 10.0811 18.2484 10.0892 18.3512C10.0972 18.4527 10.0912 18.5238 10.0661 18.6225C10.0406 18.7223 9.98451 18.8262 9.87226 19.034L8.50921 21.557C8.31479 21.9168 8.21757 22.0968 8.23933 22.2356C8.25828 22.3566 8.32947 22.4631 8.43399 22.5269C8.554 22.6001 8.75743 22.579 9.1643 22.537L13.4318 22.0958C13.5611 22.0825 13.6257 22.0758 13.6846 22.0781C13.7425 22.0803 13.7834 22.0857 13.8399 22.0987C13.8973 22.112 13.9695 22.1398 14.114 22.1954C14.904 22.4998 15.7624 22.6667 16.6597 22.6667Z" stroke="black" stroke-width="2" stroke-linecap="round" stroke-linejoin="round"/>
</svg>
