<svg width="33" height="33" viewBox="0 0 33 33" fill="none" xmlns="http://www.w3.org/2000/svg">
<circle cx="16.4883" cy="16.6865" r="16" fill="#0E0B1E"/>
<circle cx="16.4883" cy="16.6865" r="16" fill="#BCC3F9"/>
<g clip-path="url(#clip0_2428_1102)">
<path d="M14.0626 14.1868C14.2586 13.6299 14.6453 13.1603 15.1543 12.8611C15.6633 12.562 16.2617 12.4526 16.8436 12.5524C17.4255 12.6523 17.9533 12.9548 18.3335 13.4065C18.7137 13.8581 18.9218 14.4298 18.921 15.0202C18.921 16.6868 16.421 17.5202 16.421 17.5202M16.4876 20.8535H16.496M24.821 16.6868C24.821 21.2892 21.09 25.0202 16.4876 25.0202C11.8853 25.0202 8.1543 21.2892 8.1543 16.6868C8.1543 12.0845 11.8853 8.35352 16.4876 8.35352C21.09 8.35352 24.821 12.0845 24.821 16.6868Z" stroke="black" stroke-width="2" stroke-linecap="round" stroke-linejoin="round"/>
</g>
<defs>
<clipPath id="clip0_2428_1102">
<rect width="20" height="20" fill="white" transform="translate(6.48828 6.68652)"/>
</clipPath>
</defs>
</svg>
