<svg width="40" height="40" viewBox="0 0 40 40" fill="none" xmlns="http://www.w3.org/2000/svg">
<circle cx="20" cy="20" r="20" fill="#C6C0FC"/>
<path d="M20 23.0002L17 20.0002M20 23.0002C21.3968 22.469 22.7369 21.799 24 21.0002M20 23.0002V28.0002C20 28.0002 23.03 27.4502 24 26.0002C25.08 24.3802 24 21.0002 24 21.0002M17 20.0002C17.5321 18.6197 18.2022 17.2963 19 16.0502C20.1652 14.1872 21.7876 12.6533 23.713 11.5943C25.6384 10.5354 27.8027 9.98662 30 10.0002C30 12.7202 29.22 17.5002 24 21.0002M17 20.0002H12C12 20.0002 12.55 16.9702 14 16.0002C15.62 14.9202 19 16.0002 19 16.0002M12.5 24.5002C11 25.7602 10.5 29.5002 10.5 29.5002C10.5 29.5002 14.24 29.0002 15.5 27.5002C16.21 26.6602 16.2 25.3702 15.41 24.5902C15.0213 24.2193 14.5093 24.0049 13.9722 23.9883C13.4352 23.9717 12.9109 24.154 12.5 24.5002Z" stroke="#0E0B1E" stroke-width="2" stroke-linecap="round" stroke-linejoin="round"/>
</svg>
