<svg width="33" height="33" viewBox="0 0 33 33" fill="none" xmlns="http://www.w3.org/2000/svg">
<circle cx="16.5117" cy="16.6865" r="16" fill="#0E0B1E"/>
<circle cx="16.5117" cy="16.6865" r="16" fill="#BCC3F9"/>
<g clip-path="url(#clip0_2428_1112)">
<path d="M13.1777 18.3535C13.1777 18.3535 14.4277 20.0202 16.5111 20.0202C18.5944 20.0202 19.8444 18.3535 19.8444 18.3535M19.0111 14.1868H19.0194M13.1777 14.1868H14.8444M24.8444 16.6868C24.8444 21.2892 21.1134 25.0202 16.5111 25.0202C11.9087 25.0202 8.17773 21.2892 8.17773 16.6868C8.17773 12.0845 11.9087 8.35352 16.5111 8.35352C21.1134 8.35352 24.8444 12.0845 24.8444 16.6868ZM19.4277 14.1868C19.4277 14.417 19.2412 14.6035 19.0111 14.6035C18.7809 14.6035 18.5944 14.417 18.5944 14.1868C18.5944 13.9567 18.7809 13.7702 19.0111 13.7702C19.2412 13.7702 19.4277 13.9567 19.4277 14.1868Z" stroke="black" stroke-width="2" stroke-linecap="round" stroke-linejoin="round"/>
</g>
<defs>
<clipPath id="clip0_2428_1112">
<rect width="20" height="20" fill="white" transform="translate(6.51172 6.68652)"/>
</clipPath>
</defs>
</svg>
