<svg width="25" height="24" viewBox="0 0 25 24" fill="none" xmlns="http://www.w3.org/2000/svg">
<path d="M10.3301 4.89609H10.2301V4.99609V15.6797C10.2301 16.3738 10.0487 16.8504 9.70902 17.1364L9.70836 17.137C9.36605 17.4304 8.90931 17.5816 8.32812 17.5816C7.74727 17.5816 7.28327 17.4305 6.92737 17.1361C6.58792 16.8501 6.40664 16.3736 6.40664 15.6797V4.99609V4.89609H6.30664H4.56836H4.46836V4.99609V15.2988C4.46836 16.661 4.8105 17.671 5.51733 18.3031L5.51768 18.3034C6.22387 18.9289 7.16431 19.2367 8.32812 19.2367C9.49171 19.2367 10.4261 18.929 11.1195 18.3029C11.8263 17.6709 12.1684 16.661 12.1684 15.2988V4.99609V4.89609H12.0684H10.3301ZM16.8483 13.8888L19.0436 19.0392L19.0695 19.1H19.1355H21.0887H21.2452L21.1794 18.958L17.8396 11.7444L20.9839 5.03855L21.0507 4.89609H20.8934H19.0379H18.9732L18.9467 4.9551L16.8714 9.57309L14.862 4.95619L14.8359 4.89609H14.7703H12.8758H12.7201L12.7848 5.03769L15.8613 11.7631L12.4825 18.9575L12.4156 19.1H12.573H14.4578H14.5227L14.5491 19.0408L16.8483 13.8888Z" fill="black"/>
<path d="M10.3301 4.89609H10.2301V4.99609V15.6797C10.2301 16.3738 10.0487 16.8504 9.70902 17.1364L9.70836 17.137C9.36605 17.4304 8.90931 17.5816 8.32812 17.5816C7.74727 17.5816 7.28327 17.4305 6.92737 17.1361C6.58792 16.8501 6.40664 16.3736 6.40664 15.6797V4.99609V4.89609H6.30664H4.56836H4.46836V4.99609V15.2988C4.46836 16.661 4.8105 17.671 5.51733 18.3031L5.51768 18.3034C6.22387 18.9289 7.16431 19.2367 8.32812 19.2367C9.49171 19.2367 10.4261 18.929 11.1195 18.3029C11.8263 17.6709 12.1684 16.661 12.1684 15.2988V4.99609V4.89609H12.0684H10.3301ZM16.8483 13.8888L19.0436 19.0392L19.0695 19.1H19.1355H21.0887H21.2452L21.1794 18.958L17.8396 11.7444L20.9839 5.03855L21.0507 4.89609H20.8934H19.0379H18.9732L18.9467 4.9551L16.8714 9.57309L14.862 4.95619L14.8359 4.89609H14.7703H12.8758H12.7201L12.7848 5.03769L15.8613 11.7631L12.4825 18.9575L12.4156 19.1H12.573H14.4578H14.5227L14.5491 19.0408L16.8483 13.8888Z" fill="#E6F6FF" fill-opacity="0.9"/>
<path d="M10.3301 4.89609H10.2301V4.99609V15.6797C10.2301 16.3738 10.0487 16.8504 9.70902 17.1364L9.70836 17.137C9.36605 17.4304 8.90931 17.5816 8.32812 17.5816C7.74727 17.5816 7.28327 17.4305 6.92737 17.1361C6.58792 16.8501 6.40664 16.3736 6.40664 15.6797V4.99609V4.89609H6.30664H4.56836H4.46836V4.99609V15.2988C4.46836 16.661 4.8105 17.671 5.51733 18.3031L5.51768 18.3034C6.22387 18.9289 7.16431 19.2367 8.32812 19.2367C9.49171 19.2367 10.4261 18.929 11.1195 18.3029C11.8263 17.6709 12.1684 16.661 12.1684 15.2988V4.99609V4.89609H12.0684H10.3301ZM16.8483 13.8888L19.0436 19.0392L19.0695 19.1H19.1355H21.0887H21.2452L21.1794 18.958L17.8396 11.7444L20.9839 5.03855L21.0507 4.89609H20.8934H19.0379H18.9732L18.9467 4.9551L16.8714 9.57309L14.862 4.95619L14.8359 4.89609H14.7703H12.8758H12.7201L12.7848 5.03769L15.8613 11.7631L12.4825 18.9575L12.4156 19.1H12.573H14.4578H14.5227L14.5491 19.0408L16.8483 13.8888Z" stroke="black" stroke-width="0.2"/>
<path d="M10.3301 4.89609H10.2301V4.99609V15.6797C10.2301 16.3738 10.0487 16.8504 9.70902 17.1364L9.70836 17.137C9.36605 17.4304 8.90931 17.5816 8.32812 17.5816C7.74727 17.5816 7.28327 17.4305 6.92737 17.1361C6.58792 16.8501 6.40664 16.3736 6.40664 15.6797V4.99609V4.89609H6.30664H4.56836H4.46836V4.99609V15.2988C4.46836 16.661 4.8105 17.671 5.51733 18.3031L5.51768 18.3034C6.22387 18.9289 7.16431 19.2367 8.32812 19.2367C9.49171 19.2367 10.4261 18.929 11.1195 18.3029C11.8263 17.6709 12.1684 16.661 12.1684 15.2988V4.99609V4.89609H12.0684H10.3301ZM16.8483 13.8888L19.0436 19.0392L19.0695 19.1H19.1355H21.0887H21.2452L21.1794 18.958L17.8396 11.7444L20.9839 5.03855L21.0507 4.89609H20.8934H19.0379H18.9732L18.9467 4.9551L16.8714 9.57309L14.862 4.95619L14.8359 4.89609H14.7703H12.8758H12.7201L12.7848 5.03769L15.8613 11.7631L12.4825 18.9575L12.4156 19.1H12.573H14.4578H14.5227L14.5491 19.0408L16.8483 13.8888Z" stroke="#E6F6FF" stroke-opacity="0.9" stroke-width="0.2"/>
</svg>
