<svg width="32" height="33" viewBox="0 0 32 33" fill="none" xmlns="http://www.w3.org/2000/svg">
<circle cx="16" cy="16.6865" r="16" fill="#0E0B1E"/>
<circle cx="16" cy="16.6865" r="16" fill="#BCC3F9"/>
<path d="M13.7936 10.7496H13.6936V10.8496V19.7526C13.6936 20.3285 13.5431 20.7198 13.2653 20.9538L13.2647 20.9543C12.9831 21.1957 12.6067 21.3209 12.1253 21.3209C11.6443 21.3209 11.2617 21.1958 10.9687 20.9535C10.6911 20.7195 10.5408 20.3283 10.5408 19.7526V10.8496V10.7496H10.4408H8.99219H8.89219V10.8496V19.4352C8.89219 20.5728 9.1779 21.42 9.77188 21.9512L9.77224 21.9515C10.3645 22.4761 11.1525 22.7335 12.1253 22.7335C13.098 22.7335 13.881 22.4761 14.4627 21.951C15.0565 21.4198 15.3422 20.5727 15.3422 19.4352V10.8496V10.7496H15.2422H13.7936ZM19.2251 18.3019L21.0395 22.5587L21.0654 22.6195H21.1315H22.7591H22.9156L22.8499 22.4775L20.07 16.4732L22.6869 10.8921L22.7537 10.7496H22.5964H21.0501H20.9854L20.9589 10.8086L19.245 14.6226L17.5855 10.8097L17.5594 10.7496H17.4938H15.915H15.7593L15.8241 10.8912L18.3846 16.4887L15.5722 22.477L15.5053 22.6195H15.6628H17.2334H17.2983L17.3247 22.5603L19.2251 18.3019Z" fill="#151515" stroke="#151515" stroke-width="0.2"/>
</svg>
